<mxfile host="app.diagrams.net" modified="2023-02-28T03:47:13.879Z" agent="5.0 (Windows NT 10.0; Win64; x64) AppleWebKit/537.36 (KHTML, like Gecko) Chrome/110.0.0.0 Safari/537.36 Edg/110.0.1587.50" etag="STOSeRBIqMNRoqh-seVi" version="20.8.20" type="github">
  <diagram id="gaf1Xc8oLgJsTNjU48Kx" name="电子营业执照运营分析">
    <mxGraphModel dx="2629" dy="2038" grid="1" gridSize="10" guides="1" tooltips="1" connect="1" arrows="1" fold="1" page="1" pageScale="1" pageWidth="827" pageHeight="1169" math="0" shadow="0">
      <root>
        <mxCell id="0" />
        <mxCell id="1" parent="0" />
        <mxCell id="Agi0m2Bdz71Y0sU2h22X-4" value="empoly_mysql" style="shape=step;perimeter=stepPerimeter;whiteSpace=wrap;html=1;fixedSize=1;fillColor=#f8cecc;strokeColor=#b85450;fontSize=15;" parent="1" vertex="1">
          <mxGeometry x="292" y="826" width="200" height="50" as="geometry" />
        </mxCell>
        <mxCell id="eUsfLuXrdPTU6Zo4dA0c-1" value="&lt;p class=&quot;MsoNormal&quot; style=&quot;font-size: 17px;&quot;&gt;使用记录数据操作流程：&amp;nbsp; &amp;nbsp;&lt;span style=&quot;background-color: initial; font-size: 17px;&quot;&gt;应用日志-&amp;gt;logStash-&amp;gt;HDFS-&amp;gt;sparkSQL-&amp;gt;hive-&amp;gt;sparkSQL-&amp;gt;mysql-&amp;gt;运营分析。&lt;/span&gt;&lt;/p&gt;" style="rounded=0;whiteSpace=wrap;html=1;strokeColor=none;align=left;fontSize=17;fillColor=none;" parent="1" vertex="1">
          <mxGeometry x="20" y="-1169" width="840" height="60" as="geometry" />
        </mxCell>
        <mxCell id="JtnIAONKJIrSGNDn3wCX-18" value="&lt;p class=&quot;MsoNormal&quot; style=&quot;font-size: 17px;&quot;&gt;使用记录数据操作流程：&amp;nbsp; &amp;nbsp;&lt;span style=&quot;background-color: initial; font-size: 17px;&quot;&gt;应用日志-&amp;gt;logStash-&amp;gt;HDFS-&amp;gt;sparkSQL-&amp;gt;hive-&amp;gt;sparkSQL-&amp;gt;mysql-&amp;gt;运营分析。&lt;/span&gt;&lt;/p&gt;" style="rounded=0;whiteSpace=wrap;html=1;strokeColor=none;align=left;fontSize=17;fillColor=none;" parent="1" vertex="1">
          <mxGeometry x="20" y="-1169" width="840" height="60" as="geometry" />
        </mxCell>
        <mxCell id="JtnIAONKJIrSGNDn3wCX-55" value="" style="group" parent="1" vertex="1" connectable="0">
          <mxGeometry x="570" y="-1090" width="250" height="250" as="geometry" />
        </mxCell>
        <mxCell id="JtnIAONKJIrSGNDn3wCX-56" value="启动参数" style="rounded=0;whiteSpace=wrap;html=1;fontSize=22;horizontal=1;verticalAlign=top;" parent="JtnIAONKJIrSGNDn3wCX-55" vertex="1">
          <mxGeometry width="250" height="250" as="geometry" />
        </mxCell>
        <mxCell id="JtnIAONKJIrSGNDn3wCX-57" value="HDFS" style="rounded=0;whiteSpace=wrap;html=1;fontSize=19;horizontal=1;verticalAlign=top;fillColor=#fff2cc;strokeColor=#d6b656;" parent="JtnIAONKJIrSGNDn3wCX-55" vertex="1">
          <mxGeometry x="10" y="50" width="230" height="190" as="geometry" />
        </mxCell>
        <mxCell id="JtnIAONKJIrSGNDn3wCX-58" value="&lt;div style=&quot;text-align: left;&quot;&gt;&lt;span style=&quot;background-color: initial;&quot;&gt;日志&lt;/span&gt;&lt;/div&gt;" style="rounded=1;whiteSpace=wrap;html=1;fontSize=15;" parent="JtnIAONKJIrSGNDn3wCX-55" vertex="1">
          <mxGeometry x="40" y="100" width="180" height="35" as="geometry" />
        </mxCell>
        <mxCell id="JtnIAONKJIrSGNDn3wCX-59" value="&lt;span style=&quot;text-align: left;&quot;&gt;...&lt;/span&gt;" style="rounded=1;whiteSpace=wrap;html=1;fontSize=15;" parent="JtnIAONKJIrSGNDn3wCX-55" vertex="1">
          <mxGeometry x="40" y="142" width="180" height="40" as="geometry" />
        </mxCell>
        <mxCell id="JtnIAONKJIrSGNDn3wCX-60" value="&lt;div style=&quot;text-align: left;&quot;&gt;...&lt;/div&gt;" style="rounded=1;whiteSpace=wrap;html=1;fontSize=15;" parent="JtnIAONKJIrSGNDn3wCX-55" vertex="1">
          <mxGeometry x="40" y="190" width="180" height="40" as="geometry" />
        </mxCell>
        <mxCell id="JtnIAONKJIrSGNDn3wCX-68" value="&lt;div style=&quot;&quot;&gt;empoly_mysql&lt;br&gt;&lt;/div&gt;&lt;div style=&quot;&quot;&gt;执照使用&lt;/div&gt;&lt;div style=&quot;&quot;&gt;读日志写入mysql&lt;br&gt;&lt;/div&gt;" style="rounded=1;whiteSpace=wrap;html=1;fontSize=15;align=center;" parent="1" vertex="1">
          <mxGeometry x="590" y="-360" width="140" height="50" as="geometry" />
        </mxCell>
        <mxCell id="JtnIAONKJIrSGNDn3wCX-70" style="edgeStyle=orthogonalEdgeStyle;curved=1;rounded=0;orthogonalLoop=1;jettySize=auto;html=1;exitX=0.5;exitY=1;exitDx=0;exitDy=0;entryX=0.5;entryY=0;entryDx=0;entryDy=0;dashed=1;dashPattern=12 12;strokeColor=#FF0000;fontSize=17;" parent="1" source="JtnIAONKJIrSGNDn3wCX-57" target="JtnIAONKJIrSGNDn3wCX-68" edge="1">
          <mxGeometry relative="1" as="geometry">
            <Array as="points">
              <mxPoint x="695" y="-810" />
              <mxPoint x="670" y="-810" />
              <mxPoint x="670" y="-605" />
              <mxPoint x="660" y="-605" />
            </Array>
          </mxGeometry>
        </mxCell>
        <mxCell id="JtnIAONKJIrSGNDn3wCX-72" value="&lt;div style=&quot;&quot;&gt;license_inserthive&lt;br&gt;&lt;/div&gt;&lt;div style=&quot;&quot;&gt;执照下载日志数据插入hive&lt;br&gt;&lt;/div&gt;" style="rounded=1;whiteSpace=wrap;html=1;fontSize=15;align=center;" parent="1" vertex="1">
          <mxGeometry x="390" y="-810" width="140" height="50" as="geometry" />
        </mxCell>
        <mxCell id="JtnIAONKJIrSGNDn3wCX-74" style="edgeStyle=orthogonalEdgeStyle;curved=1;rounded=0;orthogonalLoop=1;jettySize=auto;html=1;exitX=0.5;exitY=1;exitDx=0;exitDy=0;entryX=1;entryY=0.5;entryDx=0;entryDy=0;dashed=1;dashPattern=12 12;strokeColor=#FF0000;fontSize=17;" parent="1" source="JtnIAONKJIrSGNDn3wCX-57" target="JtnIAONKJIrSGNDn3wCX-72" edge="1">
          <mxGeometry relative="1" as="geometry" />
        </mxCell>
        <mxCell id="JtnIAONKJIrSGNDn3wCX-76" value="&lt;div style=&quot;&quot;&gt;license_receive_history&lt;br&gt;&lt;/div&gt;按照周月季年分组统计&lt;div style=&quot;&quot;&gt;执照下载数据&lt;br&gt;&lt;/div&gt;" style="rounded=1;whiteSpace=wrap;html=1;fontSize=15;align=center;" parent="1" vertex="1">
          <mxGeometry x="-310" y="-380" width="180" height="50" as="geometry" />
        </mxCell>
        <mxCell id="JtnIAONKJIrSGNDn3wCX-77" value="&lt;div style=&quot;&quot;&gt;license_receive_hive&lt;br&gt;&lt;/div&gt;&lt;div style=&quot;&quot;&gt;前日执照下载统计&lt;/div&gt;" style="rounded=1;whiteSpace=wrap;html=1;fontSize=15;align=center;" parent="1" vertex="1">
          <mxGeometry x="-100" y="-380" width="180" height="50" as="geometry" />
        </mxCell>
        <mxCell id="JtnIAONKJIrSGNDn3wCX-91" style="edgeStyle=orthogonalEdgeStyle;curved=1;rounded=0;orthogonalLoop=1;jettySize=auto;html=1;exitX=1;exitY=0.5;exitDx=0;exitDy=0;entryX=0;entryY=0.5;entryDx=0;entryDy=0;dashed=1;dashPattern=12 12;strokeColor=#666600;fontSize=17;" parent="1" source="JtnIAONKJIrSGNDn3wCX-87" target="JtnIAONKJIrSGNDn3wCX-84" edge="1">
          <mxGeometry relative="1" as="geometry" />
        </mxCell>
        <mxCell id="JtnIAONKJIrSGNDn3wCX-87" value="&lt;div style=&quot;&quot;&gt;group_licence_use&lt;br&gt;&lt;/div&gt;&lt;div style=&quot;&quot;&gt;按 月 统计有执照使用记录的企业&lt;br&gt;&lt;/div&gt;" style="rounded=1;whiteSpace=wrap;html=1;fontSize=15;align=center;" parent="1" vertex="1">
          <mxGeometry x="687" y="-595.5" width="140" height="50" as="geometry" />
        </mxCell>
        <mxCell id="JtnIAONKJIrSGNDn3wCX-88" style="edgeStyle=orthogonalEdgeStyle;curved=1;rounded=0;orthogonalLoop=1;jettySize=auto;html=1;exitX=1;exitY=0.5;exitDx=0;exitDy=0;entryX=0;entryY=0.5;entryDx=0;entryDy=0;dashed=1;dashPattern=12 12;strokeColor=#666600;fontSize=17;" parent="1" source="JtnIAONKJIrSGNDn3wCX-22" target="JtnIAONKJIrSGNDn3wCX-87" edge="1">
          <mxGeometry relative="1" as="geometry" />
        </mxCell>
        <mxCell id="JtnIAONKJIrSGNDn3wCX-92" value="&lt;div style=&quot;&quot;&gt;market_inserthive&lt;br&gt;&lt;/div&gt;&lt;div style=&quot;&quot;&gt;市场主体日志数据插入hive&lt;br&gt;&lt;/div&gt;" style="rounded=1;whiteSpace=wrap;html=1;fontSize=15;align=center;" parent="1" vertex="1">
          <mxGeometry x="-200" y="-860" width="140" height="50" as="geometry" />
        </mxCell>
        <mxCell id="JtnIAONKJIrSGNDn3wCX-93" style="edgeStyle=orthogonalEdgeStyle;curved=1;rounded=0;orthogonalLoop=1;jettySize=auto;html=1;exitX=0;exitY=0.5;exitDx=0;exitDy=0;entryX=0.5;entryY=0;entryDx=0;entryDy=0;dashed=1;dashPattern=12 12;strokeColor=#009900;fontSize=17;" parent="1" source="JtnIAONKJIrSGNDn3wCX-57" target="JtnIAONKJIrSGNDn3wCX-92" edge="1">
          <mxGeometry relative="1" as="geometry" />
        </mxCell>
        <mxCell id="JtnIAONKJIrSGNDn3wCX-96" value="&lt;div style=&quot;&quot;&gt;market_players_hive&lt;br&gt;&lt;/div&gt;&lt;div style=&quot;&quot;&gt;前日市场主体统计&lt;/div&gt;" style="rounded=1;whiteSpace=wrap;html=1;fontSize=15;align=center;" parent="1" vertex="1">
          <mxGeometry x="20" y="-200" width="180" height="50" as="geometry" />
        </mxCell>
        <mxCell id="JtnIAONKJIrSGNDn3wCX-116" value="&lt;div style=&quot;&quot;&gt;license_receive_mysql&lt;br&gt;&lt;/div&gt;&lt;div style=&quot;&quot;&gt;执照下载读日志存入MySQL&lt;/div&gt;" style="rounded=1;whiteSpace=wrap;html=1;fontSize=15;align=center;" parent="1" vertex="1">
          <mxGeometry x="410" y="-190" width="180" height="50" as="geometry" />
        </mxCell>
        <mxCell id="JtnIAONKJIrSGNDn3wCX-20" value="Hive" style="rounded=0;whiteSpace=wrap;html=1;fontSize=22;horizontal=1;verticalAlign=top;" parent="1" vertex="1">
          <mxGeometry x="50" y="-719" width="500" height="329" as="geometry" />
        </mxCell>
        <mxCell id="JtnIAONKJIrSGNDn3wCX-21" value="dmtest" style="rounded=0;whiteSpace=wrap;html=1;fontSize=19;horizontal=1;verticalAlign=top;fillColor=#fff2cc;strokeColor=#d6b656;" parent="1" vertex="1">
          <mxGeometry x="60" y="-675.41" width="230" height="255.41" as="geometry" />
        </mxCell>
        <mxCell id="JtnIAONKJIrSGNDn3wCX-22" value="&lt;span style=&quot;text-align: left;&quot;&gt;licenses&lt;/span&gt;" style="rounded=1;whiteSpace=wrap;html=1;fontSize=15;" parent="1" vertex="1">
          <mxGeometry x="90" y="-631.8205128205128" width="180" height="30.512820512820515" as="geometry" />
        </mxCell>
        <mxCell id="JtnIAONKJIrSGNDn3wCX-23" value="&lt;span style=&quot;text-align: left;&quot;&gt;business_licence_employ&lt;/span&gt;" style="rounded=1;whiteSpace=wrap;html=1;fontSize=15;" parent="1" vertex="1">
          <mxGeometry x="90" y="-593.5017948717949" width="180" height="34.871794871794876" as="geometry" />
        </mxCell>
        <mxCell id="JtnIAONKJIrSGNDn3wCX-24" value="&lt;div style=&quot;text-align: left;&quot;&gt;&lt;span style=&quot;background-color: initial;&quot;&gt;enterprise&lt;/span&gt;&lt;/div&gt;" style="rounded=1;whiteSpace=wrap;html=1;fontSize=15;" parent="1" vertex="1">
          <mxGeometry x="90" y="-550.0041025641026" width="180" height="34.871794871794876" as="geometry" />
        </mxCell>
        <mxCell id="JtnIAONKJIrSGNDn3wCX-25" value="&lt;div style=&quot;text-align: left;&quot;&gt;ENTERPRISE_LOG&lt;br&gt;&lt;/div&gt;" style="rounded=1;whiteSpace=wrap;html=1;fontSize=15;" parent="1" vertex="1">
          <mxGeometry x="90" y="-505.9964102564103" width="180" height="34.871794871794876" as="geometry" />
        </mxCell>
        <mxCell id="JtnIAONKJIrSGNDn3wCX-26" value="licmgr" style="rounded=0;whiteSpace=wrap;html=1;fontSize=19;horizontal=1;verticalAlign=top;fillColor=#fff2cc;strokeColor=#d6b656;" parent="1" vertex="1">
          <mxGeometry x="310" y="-675.4102564102564" width="230" height="78.46153846153847" as="geometry" />
        </mxCell>
        <mxCell id="JtnIAONKJIrSGNDn3wCX-27" value="&lt;div style=&quot;text-align: left;&quot;&gt;&lt;span style=&quot;background-color: initial;&quot;&gt;LICENSE&lt;/span&gt;&lt;/div&gt;" style="rounded=1;whiteSpace=wrap;html=1;fontSize=15;" parent="1" vertex="1">
          <mxGeometry x="335" y="-631.8205128205128" width="180" height="30.512820512820515" as="geometry" />
        </mxCell>
        <mxCell id="JtnIAONKJIrSGNDn3wCX-125" value="&lt;div style=&quot;text-align: left;&quot;&gt;real_name&lt;br&gt;&lt;/div&gt;" style="rounded=1;whiteSpace=wrap;html=1;fontSize=15;" parent="1" vertex="1">
          <mxGeometry x="90" y="-463.8764102564103" width="180" height="34.871794871794876" as="geometry" />
        </mxCell>
        <mxCell id="JtnIAONKJIrSGNDn3wCX-98" style="edgeStyle=orthogonalEdgeStyle;curved=1;rounded=0;orthogonalLoop=1;jettySize=auto;html=1;exitX=0.5;exitY=1;exitDx=0;exitDy=0;entryX=0.5;entryY=0;entryDx=0;entryDy=0;dashed=1;dashPattern=12 12;strokeColor=#009900;fontSize=17;" parent="1" source="JtnIAONKJIrSGNDn3wCX-24" target="JtnIAONKJIrSGNDn3wCX-96" edge="1">
          <mxGeometry relative="1" as="geometry">
            <Array as="points">
              <mxPoint x="170" y="-477" />
              <mxPoint x="170" y="-393" />
              <mxPoint x="130" y="-393" />
            </Array>
          </mxGeometry>
        </mxCell>
        <mxCell id="JtnIAONKJIrSGNDn3wCX-97" style="edgeStyle=orthogonalEdgeStyle;curved=1;rounded=0;orthogonalLoop=1;jettySize=auto;html=1;exitX=0.5;exitY=1;exitDx=0;exitDy=0;entryX=0.5;entryY=0;entryDx=0;entryDy=0;dashed=1;dashPattern=12 12;strokeColor=#009900;fontSize=17;" parent="1" source="JtnIAONKJIrSGNDn3wCX-25" target="JtnIAONKJIrSGNDn3wCX-96" edge="1">
          <mxGeometry relative="1" as="geometry">
            <Array as="points">
              <mxPoint x="180" y="-340" />
              <mxPoint x="130" y="-340" />
            </Array>
          </mxGeometry>
        </mxCell>
        <mxCell id="JtnIAONKJIrSGNDn3wCX-64" style="edgeStyle=orthogonalEdgeStyle;curved=1;rounded=0;orthogonalLoop=1;jettySize=auto;html=1;exitX=1;exitY=0.5;exitDx=0;exitDy=0;entryX=0;entryY=0.5;entryDx=0;entryDy=0;dashed=1;dashPattern=12 12;strokeColor=#00FFFF;fontSize=17;" parent="1" source="JtnIAONKJIrSGNDn3wCX-23" target="JtnIAONKJIrSGNDn3wCX-35" edge="1">
          <mxGeometry relative="1" as="geometry">
            <Array as="points">
              <mxPoint x="380" y="-546" />
              <mxPoint x="380" y="316" />
            </Array>
          </mxGeometry>
        </mxCell>
        <mxCell id="JtnIAONKJIrSGNDn3wCX-66" value="empoly_hive&lt;br&gt;前日的执照使用" style="edgeLabel;html=1;align=center;verticalAlign=middle;resizable=0;points=[];fontSize=17;" parent="JtnIAONKJIrSGNDn3wCX-64" vertex="1" connectable="0">
          <mxGeometry x="-0.3274" y="-5" relative="1" as="geometry">
            <mxPoint x="10" y="56" as="offset" />
          </mxGeometry>
        </mxCell>
        <mxCell id="JtnIAONKJIrSGNDn3wCX-117" style="edgeStyle=orthogonalEdgeStyle;curved=1;rounded=0;orthogonalLoop=1;jettySize=auto;html=1;exitX=1;exitY=0.5;exitDx=0;exitDy=0;entryX=0.5;entryY=0;entryDx=0;entryDy=0;dashed=1;dashPattern=12 12;strokeColor=#FF0000;fontSize=17;" parent="1" source="JtnIAONKJIrSGNDn3wCX-24" target="JtnIAONKJIrSGNDn3wCX-116" edge="1">
          <mxGeometry relative="1" as="geometry" />
        </mxCell>
        <mxCell id="JtnIAONKJIrSGNDn3wCX-118" style="edgeStyle=orthogonalEdgeStyle;curved=1;rounded=0;orthogonalLoop=1;jettySize=auto;html=1;exitX=1;exitY=0.5;exitDx=0;exitDy=0;dashed=1;dashPattern=12 12;strokeColor=#FF0000;fontSize=17;" parent="1" source="JtnIAONKJIrSGNDn3wCX-22" edge="1">
          <mxGeometry relative="1" as="geometry">
            <mxPoint x="500" y="-190" as="targetPoint" />
          </mxGeometry>
        </mxCell>
        <mxCell id="JtnIAONKJIrSGNDn3wCX-119" style="edgeStyle=orthogonalEdgeStyle;curved=1;rounded=0;orthogonalLoop=1;jettySize=auto;html=1;exitX=0.5;exitY=1;exitDx=0;exitDy=0;entryX=0.5;entryY=0;entryDx=0;entryDy=0;dashed=1;dashPattern=12 12;strokeColor=#FF0000;fontSize=17;" parent="1" source="JtnIAONKJIrSGNDn3wCX-60" target="JtnIAONKJIrSGNDn3wCX-116" edge="1">
          <mxGeometry relative="1" as="geometry" />
        </mxCell>
        <mxCell id="JtnIAONKJIrSGNDn3wCX-69" style="edgeStyle=orthogonalEdgeStyle;curved=1;rounded=0;orthogonalLoop=1;jettySize=auto;html=1;exitX=1;exitY=0.5;exitDx=0;exitDy=0;entryX=0.5;entryY=0;entryDx=0;entryDy=0;dashed=1;dashPattern=12 12;strokeColor=#FF0000;fontSize=17;" parent="1" source="JtnIAONKJIrSGNDn3wCX-24" target="JtnIAONKJIrSGNDn3wCX-68" edge="1">
          <mxGeometry relative="1" as="geometry" />
        </mxCell>
        <mxCell id="JtnIAONKJIrSGNDn3wCX-90" style="edgeStyle=orthogonalEdgeStyle;curved=1;rounded=0;orthogonalLoop=1;jettySize=auto;html=1;exitX=1;exitY=0.5;exitDx=0;exitDy=0;entryX=0;entryY=0.5;entryDx=0;entryDy=0;dashed=1;dashPattern=12 12;strokeColor=#666600;fontSize=17;" parent="1" source="JtnIAONKJIrSGNDn3wCX-24" target="JtnIAONKJIrSGNDn3wCX-87" edge="1">
          <mxGeometry relative="1" as="geometry" />
        </mxCell>
        <mxCell id="JtnIAONKJIrSGNDn3wCX-89" style="edgeStyle=orthogonalEdgeStyle;curved=1;rounded=0;orthogonalLoop=1;jettySize=auto;html=1;exitX=1;exitY=0.5;exitDx=0;exitDy=0;dashed=1;dashPattern=12 12;strokeColor=#666600;fontSize=17;" parent="1" source="JtnIAONKJIrSGNDn3wCX-23" edge="1">
          <mxGeometry relative="1" as="geometry">
            <mxPoint x="680" y="-570" as="targetPoint" />
          </mxGeometry>
        </mxCell>
        <mxCell id="JtnIAONKJIrSGNDn3wCX-106" style="edgeStyle=orthogonalEdgeStyle;curved=1;rounded=0;orthogonalLoop=1;jettySize=auto;html=1;exitX=1;exitY=0.5;exitDx=0;exitDy=0;entryX=0.5;entryY=1;entryDx=0;entryDy=0;dashed=1;dashPattern=12 12;strokeColor=#009900;fontSize=17;" parent="1" source="JtnIAONKJIrSGNDn3wCX-24" target="JtnIAONKJIrSGNDn3wCX-103" edge="1">
          <mxGeometry relative="1" as="geometry">
            <Array as="points">
              <mxPoint x="270" y="-390" />
              <mxPoint x="1735" y="-390" />
            </Array>
          </mxGeometry>
        </mxCell>
        <mxCell id="JtnIAONKJIrSGNDn3wCX-107" value="mgr_log_select&lt;br&gt;将企业实体中企业名称&lt;br&gt;为空的数据插入到达梦库" style="edgeLabel;html=1;align=center;verticalAlign=middle;resizable=0;points=[];fontSize=17;" parent="JtnIAONKJIrSGNDn3wCX-106" vertex="1" connectable="0">
          <mxGeometry x="-0.056" y="-3" relative="1" as="geometry">
            <mxPoint x="13" as="offset" />
          </mxGeometry>
        </mxCell>
        <mxCell id="JtnIAONKJIrSGNDn3wCX-114" style="edgeStyle=orthogonalEdgeStyle;curved=1;rounded=0;orthogonalLoop=1;jettySize=auto;html=1;exitX=1;exitY=0.75;exitDx=0;exitDy=0;dashed=1;dashPattern=12 12;strokeColor=#009900;fontSize=17;" parent="1" source="JtnIAONKJIrSGNDn3wCX-56" target="JtnIAONKJIrSGNDn3wCX-27" edge="1">
          <mxGeometry relative="1" as="geometry">
            <Array as="points">
              <mxPoint x="840" y="-902" />
              <mxPoint x="840" y="-700" />
              <mxPoint x="380" y="-700" />
            </Array>
          </mxGeometry>
        </mxCell>
        <mxCell id="JtnIAONKJIrSGNDn3wCX-115" value="mgr_log_inserthive&lt;br&gt;日志存入Hive" style="edgeLabel;html=1;align=center;verticalAlign=middle;resizable=0;points=[];fontSize=17;" parent="JtnIAONKJIrSGNDn3wCX-114" vertex="1" connectable="0">
          <mxGeometry x="0.457" y="11" relative="1" as="geometry">
            <mxPoint x="-2" y="19" as="offset" />
          </mxGeometry>
        </mxCell>
        <mxCell id="JtnIAONKJIrSGNDn3wCX-73" style="edgeStyle=orthogonalEdgeStyle;curved=1;rounded=0;orthogonalLoop=1;jettySize=auto;html=1;exitX=1;exitY=0.5;exitDx=0;exitDy=0;entryX=1;entryY=0.5;entryDx=0;entryDy=0;dashed=1;dashPattern=12 12;strokeColor=#FF0000;fontSize=17;" parent="1" source="JtnIAONKJIrSGNDn3wCX-24" target="JtnIAONKJIrSGNDn3wCX-72" edge="1">
          <mxGeometry relative="1" as="geometry" />
        </mxCell>
        <mxCell id="JtnIAONKJIrSGNDn3wCX-62" style="edgeStyle=orthogonalEdgeStyle;curved=1;rounded=0;orthogonalLoop=1;jettySize=auto;html=1;exitX=0;exitY=0.5;exitDx=0;exitDy=0;entryX=0.75;entryY=0;entryDx=0;entryDy=0;dashed=1;dashPattern=12 12;strokeColor=#00FFFF;fontSize=17;" parent="1" source="JtnIAONKJIrSGNDn3wCX-57" target="JtnIAONKJIrSGNDn3wCX-23" edge="1">
          <mxGeometry relative="1" as="geometry" />
        </mxCell>
        <mxCell id="JtnIAONKJIrSGNDn3wCX-61" style="edgeStyle=orthogonalEdgeStyle;curved=1;rounded=0;orthogonalLoop=1;jettySize=auto;html=1;exitX=0;exitY=0.5;exitDx=0;exitDy=0;entryX=0.5;entryY=0;entryDx=0;entryDy=0;dashed=1;dashPattern=12 12;strokeColor=#00FFFF;fontSize=17;" parent="1" source="JtnIAONKJIrSGNDn3wCX-57" target="JtnIAONKJIrSGNDn3wCX-22" edge="1">
          <mxGeometry relative="1" as="geometry" />
        </mxCell>
        <mxCell id="JtnIAONKJIrSGNDn3wCX-63" value="empoly_inserthive&lt;br&gt;执照使用日志" style="edgeLabel;html=1;align=center;verticalAlign=middle;resizable=0;points=[];fontSize=17;" parent="JtnIAONKJIrSGNDn3wCX-61" vertex="1" connectable="0">
          <mxGeometry x="0.4442" y="47" relative="1" as="geometry">
            <mxPoint x="23" as="offset" />
          </mxGeometry>
        </mxCell>
        <mxCell id="JtnIAONKJIrSGNDn3wCX-75" style="edgeStyle=orthogonalEdgeStyle;curved=1;rounded=0;orthogonalLoop=1;jettySize=auto;html=1;exitX=0;exitY=0.5;exitDx=0;exitDy=0;dashed=1;dashPattern=12 12;strokeColor=#FF0000;fontSize=17;" parent="1" source="JtnIAONKJIrSGNDn3wCX-72" target="JtnIAONKJIrSGNDn3wCX-22" edge="1">
          <mxGeometry relative="1" as="geometry" />
        </mxCell>
        <mxCell id="JtnIAONKJIrSGNDn3wCX-78" style="edgeStyle=orthogonalEdgeStyle;curved=1;rounded=0;orthogonalLoop=1;jettySize=auto;html=1;exitX=0;exitY=0.5;exitDx=0;exitDy=0;entryX=0.5;entryY=0;entryDx=0;entryDy=0;dashed=1;dashPattern=12 12;strokeColor=#FF0000;fontSize=17;" parent="1" source="JtnIAONKJIrSGNDn3wCX-22" target="JtnIAONKJIrSGNDn3wCX-76" edge="1">
          <mxGeometry relative="1" as="geometry" />
        </mxCell>
        <mxCell id="JtnIAONKJIrSGNDn3wCX-79" style="edgeStyle=orthogonalEdgeStyle;curved=1;rounded=0;orthogonalLoop=1;jettySize=auto;html=1;exitX=0;exitY=0.5;exitDx=0;exitDy=0;entryX=0.5;entryY=0;entryDx=0;entryDy=0;dashed=1;dashPattern=12 12;strokeColor=#FF0000;fontSize=17;" parent="1" source="JtnIAONKJIrSGNDn3wCX-22" target="JtnIAONKJIrSGNDn3wCX-77" edge="1">
          <mxGeometry relative="1" as="geometry" />
        </mxCell>
        <mxCell id="JtnIAONKJIrSGNDn3wCX-94" style="edgeStyle=orthogonalEdgeStyle;curved=1;rounded=0;orthogonalLoop=1;jettySize=auto;html=1;exitX=0.5;exitY=1;exitDx=0;exitDy=0;entryX=0;entryY=0.5;entryDx=0;entryDy=0;dashed=1;dashPattern=12 12;strokeColor=#009900;fontSize=17;" parent="1" source="JtnIAONKJIrSGNDn3wCX-92" target="JtnIAONKJIrSGNDn3wCX-24" edge="1">
          <mxGeometry relative="1" as="geometry" />
        </mxCell>
        <mxCell id="JtnIAONKJIrSGNDn3wCX-95" style="edgeStyle=orthogonalEdgeStyle;curved=1;rounded=0;orthogonalLoop=1;jettySize=auto;html=1;exitX=0.5;exitY=1;exitDx=0;exitDy=0;entryX=0;entryY=0.5;entryDx=0;entryDy=0;dashed=1;dashPattern=12 12;strokeColor=#009900;fontSize=17;" parent="1" source="JtnIAONKJIrSGNDn3wCX-92" target="JtnIAONKJIrSGNDn3wCX-25" edge="1">
          <mxGeometry relative="1" as="geometry" />
        </mxCell>
        <mxCell id="JtnIAONKJIrSGNDn3wCX-126" style="edgeStyle=orthogonalEdgeStyle;curved=1;rounded=0;orthogonalLoop=1;jettySize=auto;html=1;exitX=0;exitY=0.75;exitDx=0;exitDy=0;entryX=0;entryY=0.5;entryDx=0;entryDy=0;dashed=1;dashPattern=12 12;strokeColor=#FF0000;fontSize=17;" parent="1" source="JtnIAONKJIrSGNDn3wCX-57" target="JtnIAONKJIrSGNDn3wCX-125" edge="1">
          <mxGeometry relative="1" as="geometry">
            <Array as="points">
              <mxPoint x="580" y="-890" />
              <mxPoint x="-20" y="-890" />
              <mxPoint x="-20" y="-446" />
            </Array>
          </mxGeometry>
        </mxCell>
        <mxCell id="JtnIAONKJIrSGNDn3wCX-127" value="real_name_inserthive&lt;br&gt;？" style="edgeLabel;html=1;align=center;verticalAlign=middle;resizable=0;points=[];fontSize=17;" parent="JtnIAONKJIrSGNDn3wCX-126" vertex="1" connectable="0">
          <mxGeometry x="-0.1052" y="45" relative="1" as="geometry">
            <mxPoint as="offset" />
          </mxGeometry>
        </mxCell>
        <mxCell id="JtnIAONKJIrSGNDn3wCX-130" value="" style="group" parent="1" vertex="1" connectable="0">
          <mxGeometry x="870" y="-695.5" width="1240" height="250" as="geometry" />
        </mxCell>
        <mxCell id="eUsfLuXrdPTU6Zo4dA0c-22" value="达梦" style="rounded=0;whiteSpace=wrap;html=1;fontSize=22;horizontal=1;verticalAlign=top;" parent="JtnIAONKJIrSGNDn3wCX-130" vertex="1">
          <mxGeometry width="1240" height="250" as="geometry" />
        </mxCell>
        <mxCell id="eUsfLuXrdPTU6Zo4dA0c-23" value="licence_auth" style="rounded=0;whiteSpace=wrap;html=1;fontSize=19;horizontal=1;verticalAlign=top;fillColor=#fff2cc;strokeColor=#d6b656;" parent="JtnIAONKJIrSGNDn3wCX-130" vertex="1">
          <mxGeometry x="250" y="55.5" width="230" height="190" as="geometry" />
        </mxCell>
        <mxCell id="eUsfLuXrdPTU6Zo4dA0c-24" value="&lt;div style=&quot;text-align: left;&quot;&gt;&lt;span style=&quot;background-color: initial;&quot;&gt;fronted_sys_info&lt;/span&gt;&lt;/div&gt;" style="rounded=1;whiteSpace=wrap;html=1;fontSize=15;" parent="JtnIAONKJIrSGNDn3wCX-130" vertex="1">
          <mxGeometry x="280" y="105.5" width="180" height="35" as="geometry" />
        </mxCell>
        <mxCell id="eUsfLuXrdPTU6Zo4dA0c-25" value="&lt;span style=&quot;text-align: left;&quot;&gt;app_info&lt;/span&gt;" style="rounded=1;whiteSpace=wrap;html=1;fontSize=15;" parent="JtnIAONKJIrSGNDn3wCX-130" vertex="1">
          <mxGeometry x="280" y="147.5" width="180" height="40" as="geometry" />
        </mxCell>
        <mxCell id="eUsfLuXrdPTU6Zo4dA0c-29" value="manager" style="rounded=0;whiteSpace=wrap;html=1;fontSize=19;horizontal=1;verticalAlign=top;fillColor=#fff2cc;strokeColor=#d6b656;" parent="JtnIAONKJIrSGNDn3wCX-130" vertex="1">
          <mxGeometry x="500" y="55.5" width="230" height="90" as="geometry" />
        </mxCell>
        <mxCell id="eUsfLuXrdPTU6Zo4dA0c-30" value="&lt;div style=&quot;text-align: left;&quot;&gt;QUERY_LOG&lt;br&gt;&lt;/div&gt;" style="rounded=1;whiteSpace=wrap;html=1;fontSize=15;" parent="JtnIAONKJIrSGNDn3wCX-130" vertex="1">
          <mxGeometry x="525" y="105.5" width="180" height="35" as="geometry" />
        </mxCell>
        <mxCell id="JtnIAONKJIrSGNDn3wCX-3" value="&lt;div style=&quot;text-align: left;&quot;&gt;app_system_config&lt;/div&gt;" style="rounded=1;whiteSpace=wrap;html=1;fontSize=15;" parent="JtnIAONKJIrSGNDn3wCX-130" vertex="1">
          <mxGeometry x="280" y="195.5" width="180" height="40" as="geometry" />
        </mxCell>
        <mxCell id="JtnIAONKJIrSGNDn3wCX-83" value="EBLICENSE_TMP" style="rounded=0;whiteSpace=wrap;html=1;fontSize=19;horizontal=1;verticalAlign=top;fillColor=#fff2cc;strokeColor=#d6b656;" parent="JtnIAONKJIrSGNDn3wCX-130" vertex="1">
          <mxGeometry x="10" y="57.5" width="230" height="188" as="geometry" />
        </mxCell>
        <mxCell id="JtnIAONKJIrSGNDn3wCX-84" value="&lt;div style=&quot;text-align: left;&quot;&gt;licence_use_&amp;lt;yyyy&amp;gt;_&amp;lt;MM&amp;gt;&lt;br&gt;&lt;/div&gt;" style="rounded=1;whiteSpace=wrap;html=1;fontSize=15;" parent="JtnIAONKJIrSGNDn3wCX-130" vertex="1">
          <mxGeometry x="30" y="107.5" width="190" height="35" as="geometry" />
        </mxCell>
        <mxCell id="JtnIAONKJIrSGNDn3wCX-85" value="&lt;div style=&quot;text-align: left;&quot;&gt;licence_use&lt;br&gt;&lt;/div&gt;" style="rounded=1;whiteSpace=wrap;html=1;fontSize=15;" parent="JtnIAONKJIrSGNDn3wCX-130" vertex="1">
          <mxGeometry x="30" y="152.5" width="190" height="35" as="geometry" />
        </mxCell>
        <mxCell id="JtnIAONKJIrSGNDn3wCX-103" value="SYSDBA" style="rounded=0;whiteSpace=wrap;html=1;fontSize=19;horizontal=1;verticalAlign=top;fillColor=#fff2cc;strokeColor=#d6b656;" parent="JtnIAONKJIrSGNDn3wCX-130" vertex="1">
          <mxGeometry x="750" y="55.5" width="230" height="90" as="geometry" />
        </mxCell>
        <mxCell id="JtnIAONKJIrSGNDn3wCX-104" value="&lt;div style=&quot;text-align: left;&quot;&gt;NULLNAMECOUNT&lt;br&gt;&lt;/div&gt;" style="rounded=1;whiteSpace=wrap;html=1;fontSize=15;" parent="JtnIAONKJIrSGNDn3wCX-130" vertex="1">
          <mxGeometry x="775" y="105.5" width="180" height="35" as="geometry" />
        </mxCell>
        <mxCell id="JtnIAONKJIrSGNDn3wCX-121" value="&lt;div style=&quot;text-align: left;&quot;&gt;licence_use_week&lt;br&gt;&lt;/div&gt;" style="rounded=1;whiteSpace=wrap;html=1;fontSize=15;" parent="JtnIAONKJIrSGNDn3wCX-130" vertex="1">
          <mxGeometry x="30" y="198" width="190" height="35" as="geometry" />
        </mxCell>
        <mxCell id="JtnIAONKJIrSGNDn3wCX-128" value="SIGNLICENSE" style="rounded=0;whiteSpace=wrap;html=1;fontSize=19;horizontal=1;verticalAlign=top;fillColor=#fff2cc;strokeColor=#d6b656;" parent="JtnIAONKJIrSGNDn3wCX-130" vertex="1">
          <mxGeometry x="1000" y="55.5" width="230" height="90" as="geometry" />
        </mxCell>
        <mxCell id="JtnIAONKJIrSGNDn3wCX-129" value="&lt;div style=&quot;text-align: left;&quot;&gt;WFWSIGNLICENSE&lt;br&gt;&lt;/div&gt;" style="rounded=1;whiteSpace=wrap;html=1;fontSize=15;" parent="JtnIAONKJIrSGNDn3wCX-130" vertex="1">
          <mxGeometry x="1025" y="105.5" width="180" height="35" as="geometry" />
        </mxCell>
        <mxCell id="JtnIAONKJIrSGNDn3wCX-134" style="edgeStyle=orthogonalEdgeStyle;curved=1;rounded=0;orthogonalLoop=1;jettySize=auto;html=1;exitX=1;exitY=0.5;exitDx=0;exitDy=0;entryX=0.5;entryY=1;entryDx=0;entryDy=0;dashed=1;dashPattern=12 12;strokeColor=#FF0000;fontSize=17;" parent="1" source="JtnIAONKJIrSGNDn3wCX-131" target="JtnIAONKJIrSGNDn3wCX-129" edge="1">
          <mxGeometry relative="1" as="geometry" />
        </mxCell>
        <mxCell id="JtnIAONKJIrSGNDn3wCX-131" value="&lt;div style=&quot;&quot;&gt;wfwsignlicense&lt;br&gt;&lt;/div&gt;&lt;div style=&quot;&quot;&gt;执照下载读日志存入达梦&lt;/div&gt;" style="rounded=1;whiteSpace=wrap;html=1;fontSize=15;align=center;" parent="1" vertex="1">
          <mxGeometry x="1130" y="280" width="180" height="50" as="geometry" />
        </mxCell>
        <mxCell id="w43A8Cxx5wbVOXLdvmOH-5" value="" style="group" parent="1" vertex="1" connectable="0">
          <mxGeometry x="350" y="-40" width="510" height="560" as="geometry" />
        </mxCell>
        <mxCell id="JtnIAONKJIrSGNDn3wCX-29" value="MySQL" style="rounded=0;whiteSpace=wrap;html=1;fontSize=22;horizontal=1;verticalAlign=top;" parent="w43A8Cxx5wbVOXLdvmOH-5" vertex="1">
          <mxGeometry y="1" width="510" height="559" as="geometry" />
        </mxCell>
        <mxCell id="eUsfLuXrdPTU6Zo4dA0c-50" value="" style="group" parent="w43A8Cxx5wbVOXLdvmOH-5" vertex="1" connectable="0">
          <mxGeometry width="510" height="560" as="geometry" />
        </mxCell>
        <mxCell id="eUsfLuXrdPTU6Zo4dA0c-34" value="MySQL" style="rounded=0;whiteSpace=wrap;html=1;fontSize=22;horizontal=1;verticalAlign=top;" parent="eUsfLuXrdPTU6Zo4dA0c-50" vertex="1">
          <mxGeometry width="510" height="560" as="geometry" />
        </mxCell>
        <mxCell id="eUsfLuXrdPTU6Zo4dA0c-35" value="yyfx" style="rounded=0;whiteSpace=wrap;html=1;fontSize=19;horizontal=1;verticalAlign=top;fillColor=#fff2cc;strokeColor=#d6b656;" parent="eUsfLuXrdPTU6Zo4dA0c-50" vertex="1">
          <mxGeometry x="10" y="50" width="230" height="500" as="geometry" />
        </mxCell>
        <mxCell id="eUsfLuXrdPTU6Zo4dA0c-36" value="app_info" style="rounded=1;whiteSpace=wrap;html=1;fontSize=15;" parent="eUsfLuXrdPTU6Zo4dA0c-50" vertex="1">
          <mxGeometry x="40" y="100" width="180" height="35" as="geometry" />
        </mxCell>
        <mxCell id="eUsfLuXrdPTU6Zo4dA0c-37" value="query_log" style="rounded=1;whiteSpace=wrap;html=1;fontSize=15;" parent="eUsfLuXrdPTU6Zo4dA0c-50" vertex="1">
          <mxGeometry x="40" y="155" width="180" height="40" as="geometry" />
        </mxCell>
        <mxCell id="eUsfLuXrdPTU6Zo4dA0c-38" value="&lt;div style=&quot;text-align: left;&quot;&gt;license_receive&lt;br&gt;&lt;/div&gt;" style="rounded=1;whiteSpace=wrap;html=1;fontSize=15;" parent="eUsfLuXrdPTU6Zo4dA0c-50" vertex="1">
          <mxGeometry x="40" y="215" width="180" height="40" as="geometry" />
        </mxCell>
        <mxCell id="eUsfLuXrdPTU6Zo4dA0c-39" value="&lt;div style=&quot;text-align: left;&quot;&gt;market_players&lt;br&gt;&lt;/div&gt;" style="rounded=1;whiteSpace=wrap;html=1;fontSize=15;" parent="eUsfLuXrdPTU6Zo4dA0c-50" vertex="1">
          <mxGeometry x="40" y="275" width="180" height="40" as="geometry" />
        </mxCell>
        <mxCell id="eUsfLuXrdPTU6Zo4dA0c-40" value="&lt;div style=&quot;text-align: left;&quot;&gt;&lt;span style=&quot;background-color: initial;&quot;&gt;licence_use&lt;/span&gt;&lt;br&gt;&lt;/div&gt;" style="rounded=1;whiteSpace=wrap;html=1;fontSize=15;" parent="eUsfLuXrdPTU6Zo4dA0c-50" vertex="1">
          <mxGeometry x="40" y="335" width="180" height="40" as="geometry" />
        </mxCell>
        <mxCell id="eUsfLuXrdPTU6Zo4dA0c-43" value="&lt;div style=&quot;text-align: left;&quot;&gt;licence_use_company&lt;br&gt;&lt;/div&gt;" style="rounded=1;whiteSpace=wrap;html=1;fontSize=15;" parent="eUsfLuXrdPTU6Zo4dA0c-50" vertex="1">
          <mxGeometry x="40" y="390" width="180" height="40" as="geometry" />
        </mxCell>
        <mxCell id="eUsfLuXrdPTU6Zo4dA0c-44" value="&lt;div style=&quot;text-align: left;&quot;&gt;licence_recevie_y&lt;br&gt;&lt;/div&gt;" style="rounded=1;whiteSpace=wrap;html=1;fontSize=15;" parent="eUsfLuXrdPTU6Zo4dA0c-50" vertex="1">
          <mxGeometry x="40" y="450" width="180" height="40" as="geometry" />
        </mxCell>
        <mxCell id="eUsfLuXrdPTU6Zo4dA0c-45" value="&lt;div style=&quot;text-align: left;&quot;&gt;licence_use_week&lt;br&gt;&lt;/div&gt;" style="rounded=1;whiteSpace=wrap;html=1;fontSize=15;" parent="eUsfLuXrdPTU6Zo4dA0c-50" vertex="1">
          <mxGeometry x="40" y="500" width="180" height="40" as="geometry" />
        </mxCell>
        <mxCell id="eUsfLuXrdPTU6Zo4dA0c-46" value="interface_monitor" style="rounded=0;whiteSpace=wrap;html=1;fontSize=19;horizontal=1;verticalAlign=top;fillColor=#fff2cc;strokeColor=#d6b656;" parent="eUsfLuXrdPTU6Zo4dA0c-50" vertex="1">
          <mxGeometry x="270" y="50" width="230" height="90" as="geometry" />
        </mxCell>
        <mxCell id="eUsfLuXrdPTU6Zo4dA0c-47" value="&lt;div style=&quot;text-align: left;&quot;&gt;query_log&lt;br&gt;&lt;/div&gt;" style="rounded=1;whiteSpace=wrap;html=1;fontSize=15;" parent="eUsfLuXrdPTU6Zo4dA0c-50" vertex="1">
          <mxGeometry x="295" y="100" width="180" height="35" as="geometry" />
        </mxCell>
        <mxCell id="JtnIAONKJIrSGNDn3wCX-30" value="yyfx" style="rounded=0;whiteSpace=wrap;html=1;fontSize=19;horizontal=1;verticalAlign=top;fillColor=#fff2cc;strokeColor=#d6b656;" parent="w43A8Cxx5wbVOXLdvmOH-5" vertex="1">
          <mxGeometry x="10" y="51" width="230" height="500" as="geometry" />
        </mxCell>
        <mxCell id="JtnIAONKJIrSGNDn3wCX-31" value="app_info" style="rounded=1;whiteSpace=wrap;html=1;fontSize=15;" parent="w43A8Cxx5wbVOXLdvmOH-5" vertex="1">
          <mxGeometry x="40" y="101" width="180" height="35" as="geometry" />
        </mxCell>
        <mxCell id="JtnIAONKJIrSGNDn3wCX-32" value="query_log" style="rounded=1;whiteSpace=wrap;html=1;fontSize=15;" parent="w43A8Cxx5wbVOXLdvmOH-5" vertex="1">
          <mxGeometry x="40" y="156" width="180" height="40" as="geometry" />
        </mxCell>
        <mxCell id="JtnIAONKJIrSGNDn3wCX-33" value="&lt;div style=&quot;text-align: left;&quot;&gt;license_receive&lt;br&gt;&lt;/div&gt;" style="rounded=1;whiteSpace=wrap;html=1;fontSize=15;" parent="w43A8Cxx5wbVOXLdvmOH-5" vertex="1">
          <mxGeometry x="40" y="216" width="180" height="40" as="geometry" />
        </mxCell>
        <mxCell id="JtnIAONKJIrSGNDn3wCX-34" value="licence_recevie_y" style="rounded=1;whiteSpace=wrap;html=1;fontSize=15;" parent="w43A8Cxx5wbVOXLdvmOH-5" vertex="1">
          <mxGeometry x="40" y="276" width="180" height="40" as="geometry" />
        </mxCell>
        <mxCell id="JtnIAONKJIrSGNDn3wCX-35" value="&lt;div style=&quot;text-align: left;&quot;&gt;&lt;span style=&quot;background-color: initial;&quot;&gt;licence_use&lt;/span&gt;&lt;br&gt;&lt;/div&gt;" style="rounded=1;whiteSpace=wrap;html=1;fontSize=15;" parent="w43A8Cxx5wbVOXLdvmOH-5" vertex="1">
          <mxGeometry x="40" y="336" width="180" height="40" as="geometry" />
        </mxCell>
        <mxCell id="JtnIAONKJIrSGNDn3wCX-36" value="&lt;div style=&quot;text-align: left;&quot;&gt;licence_use_company&lt;/div&gt;" style="rounded=1;whiteSpace=wrap;html=1;fontSize=15;" parent="w43A8Cxx5wbVOXLdvmOH-5" vertex="1">
          <mxGeometry x="40" y="391" width="180" height="40" as="geometry" />
        </mxCell>
        <mxCell id="JtnIAONKJIrSGNDn3wCX-37" value="&lt;div style=&quot;text-align: left;&quot;&gt;&lt;span style=&quot;background-color: initial;&quot;&gt;market_players&lt;/span&gt;&lt;br&gt;&lt;/div&gt;" style="rounded=1;whiteSpace=wrap;html=1;fontSize=15;" parent="w43A8Cxx5wbVOXLdvmOH-5" vertex="1">
          <mxGeometry x="40" y="451" width="180" height="40" as="geometry" />
        </mxCell>
        <mxCell id="JtnIAONKJIrSGNDn3wCX-38" value="&lt;div style=&quot;text-align: left;&quot;&gt;licence_use_week&lt;br&gt;&lt;/div&gt;" style="rounded=1;whiteSpace=wrap;html=1;fontSize=15;" parent="w43A8Cxx5wbVOXLdvmOH-5" vertex="1">
          <mxGeometry x="40" y="501" width="180" height="40" as="geometry" />
        </mxCell>
        <mxCell id="JtnIAONKJIrSGNDn3wCX-39" value="interface_monitor" style="rounded=0;whiteSpace=wrap;html=1;fontSize=19;horizontal=1;verticalAlign=top;fillColor=#fff2cc;strokeColor=#d6b656;" parent="w43A8Cxx5wbVOXLdvmOH-5" vertex="1">
          <mxGeometry x="270" y="51" width="230" height="90" as="geometry" />
        </mxCell>
        <mxCell id="JtnIAONKJIrSGNDn3wCX-40" value="&lt;div style=&quot;text-align: left;&quot;&gt;query_log&lt;br&gt;&lt;/div&gt;" style="rounded=1;whiteSpace=wrap;html=1;fontSize=15;" parent="w43A8Cxx5wbVOXLdvmOH-5" vertex="1">
          <mxGeometry x="295" y="101" width="180" height="35" as="geometry" />
        </mxCell>
        <mxCell id="w43A8Cxx5wbVOXLdvmOH-1" value="interface_monitor" style="rounded=0;whiteSpace=wrap;html=1;fontSize=19;horizontal=1;verticalAlign=top;fillColor=#fff2cc;strokeColor=#d6b656;" parent="w43A8Cxx5wbVOXLdvmOH-5" vertex="1">
          <mxGeometry x="270" y="225" width="230" height="90" as="geometry" />
        </mxCell>
        <mxCell id="w43A8Cxx5wbVOXLdvmOH-2" value="&lt;div style=&quot;text-align: left;&quot;&gt;query_log&lt;br&gt;&lt;/div&gt;" style="rounded=1;whiteSpace=wrap;html=1;fontSize=15;" parent="w43A8Cxx5wbVOXLdvmOH-5" vertex="1">
          <mxGeometry x="295" y="275" width="180" height="35" as="geometry" />
        </mxCell>
        <mxCell id="w43A8Cxx5wbVOXLdvmOH-3" value="yyfxx ?" style="rounded=0;whiteSpace=wrap;html=1;fontSize=19;horizontal=1;verticalAlign=top;fillColor=#fff2cc;strokeColor=#d6b656;" parent="w43A8Cxx5wbVOXLdvmOH-5" vertex="1">
          <mxGeometry x="270" y="226" width="230" height="90" as="geometry" />
        </mxCell>
        <mxCell id="w43A8Cxx5wbVOXLdvmOH-4" value="&lt;div style=&quot;text-align: left;&quot;&gt;licence_use_company&lt;br&gt;&lt;/div&gt;" style="rounded=1;whiteSpace=wrap;html=1;fontSize=15;" parent="w43A8Cxx5wbVOXLdvmOH-5" vertex="1">
          <mxGeometry x="295" y="276" width="180" height="35" as="geometry" />
        </mxCell>
        <mxCell id="JtnIAONKJIrSGNDn3wCX-99" style="edgeStyle=orthogonalEdgeStyle;curved=1;rounded=0;orthogonalLoop=1;jettySize=auto;html=1;exitX=0.5;exitY=1;exitDx=0;exitDy=0;entryX=0;entryY=0.5;entryDx=0;entryDy=0;dashed=1;dashPattern=12 12;strokeColor=#009900;fontSize=17;" parent="1" source="JtnIAONKJIrSGNDn3wCX-96" target="JtnIAONKJIrSGNDn3wCX-37" edge="1">
          <mxGeometry relative="1" as="geometry" />
        </mxCell>
        <mxCell id="JtnIAONKJIrSGNDn3wCX-80" style="edgeStyle=orthogonalEdgeStyle;curved=1;rounded=0;orthogonalLoop=1;jettySize=auto;html=1;exitX=0.5;exitY=1;exitDx=0;exitDy=0;entryX=0;entryY=0.5;entryDx=0;entryDy=0;dashed=1;dashPattern=12 12;strokeColor=#FF0000;fontSize=17;" parent="1" source="JtnIAONKJIrSGNDn3wCX-76" target="JtnIAONKJIrSGNDn3wCX-34" edge="1">
          <mxGeometry relative="1" as="geometry" />
        </mxCell>
        <mxCell id="JtnIAONKJIrSGNDn3wCX-65" style="edgeStyle=orthogonalEdgeStyle;curved=1;rounded=0;orthogonalLoop=1;jettySize=auto;html=1;exitX=1;exitY=0.5;exitDx=0;exitDy=0;entryX=0;entryY=0.5;entryDx=0;entryDy=0;dashed=1;dashPattern=12 12;strokeColor=#00FFFF;fontSize=17;" parent="1" source="JtnIAONKJIrSGNDn3wCX-23" target="JtnIAONKJIrSGNDn3wCX-36" edge="1">
          <mxGeometry relative="1" as="geometry">
            <Array as="points">
              <mxPoint x="290" y="-546" />
              <mxPoint x="290" y="371" />
            </Array>
          </mxGeometry>
        </mxCell>
        <mxCell id="JtnIAONKJIrSGNDn3wCX-67" value="empoly_hive_name&lt;br&gt;按应用系统分组&lt;br&gt;的执照使用" style="edgeLabel;html=1;align=center;verticalAlign=middle;resizable=0;points=[];fontSize=17;" parent="JtnIAONKJIrSGNDn3wCX-65" vertex="1" connectable="0">
          <mxGeometry x="-0.2465" y="-3" relative="1" as="geometry">
            <mxPoint as="offset" />
          </mxGeometry>
        </mxCell>
        <mxCell id="JtnIAONKJIrSGNDn3wCX-82" style="edgeStyle=orthogonalEdgeStyle;curved=1;rounded=0;orthogonalLoop=1;jettySize=auto;html=1;exitX=0.5;exitY=1;exitDx=0;exitDy=0;entryX=0;entryY=0.5;entryDx=0;entryDy=0;dashed=1;dashPattern=12 12;strokeColor=#FF0000;fontSize=17;" parent="1" source="JtnIAONKJIrSGNDn3wCX-77" target="JtnIAONKJIrSGNDn3wCX-33" edge="1">
          <mxGeometry relative="1" as="geometry" />
        </mxCell>
        <mxCell id="JtnIAONKJIrSGNDn3wCX-120" style="edgeStyle=orthogonalEdgeStyle;curved=1;rounded=0;orthogonalLoop=1;jettySize=auto;html=1;exitX=0.5;exitY=1;exitDx=0;exitDy=0;entryX=0;entryY=0.5;entryDx=0;entryDy=0;dashed=1;dashPattern=12 12;strokeColor=#FF0000;fontSize=17;" parent="1" source="JtnIAONKJIrSGNDn3wCX-116" target="JtnIAONKJIrSGNDn3wCX-33" edge="1">
          <mxGeometry relative="1" as="geometry">
            <Array as="points">
              <mxPoint x="500" y="-90" />
              <mxPoint x="320" y="-90" />
              <mxPoint x="320" y="196" />
            </Array>
          </mxGeometry>
        </mxCell>
        <mxCell id="JtnIAONKJIrSGNDn3wCX-1" style="edgeStyle=orthogonalEdgeStyle;curved=1;rounded=0;orthogonalLoop=1;jettySize=auto;html=1;exitX=0.5;exitY=1;exitDx=0;exitDy=0;entryX=0.75;entryY=0;entryDx=0;entryDy=0;fontSize=17;dashed=1;dashPattern=12 12;strokeColor=#3399FF;" parent="1" source="eUsfLuXrdPTU6Zo4dA0c-23" target="eUsfLuXrdPTU6Zo4dA0c-36" edge="1">
          <mxGeometry relative="1" as="geometry" />
        </mxCell>
        <mxCell id="JtnIAONKJIrSGNDn3wCX-2" value="app_center_mysql&lt;br&gt;APP统计" style="edgeLabel;html=1;align=center;verticalAlign=middle;resizable=0;points=[];fontSize=17;" parent="JtnIAONKJIrSGNDn3wCX-1" vertex="1" connectable="0">
          <mxGeometry x="0.3298" y="5" relative="1" as="geometry">
            <mxPoint x="205" y="-10" as="offset" />
          </mxGeometry>
        </mxCell>
        <mxCell id="JtnIAONKJIrSGNDn3wCX-71" style="edgeStyle=orthogonalEdgeStyle;curved=1;rounded=0;orthogonalLoop=1;jettySize=auto;html=1;exitX=0.5;exitY=1;exitDx=0;exitDy=0;entryX=1;entryY=0.5;entryDx=0;entryDy=0;dashed=1;dashPattern=12 12;strokeColor=#FF0000;fontSize=17;" parent="1" source="JtnIAONKJIrSGNDn3wCX-68" target="JtnIAONKJIrSGNDn3wCX-35" edge="1">
          <mxGeometry relative="1" as="geometry">
            <Array as="points">
              <mxPoint x="660" y="-280" />
              <mxPoint x="610" y="-280" />
              <mxPoint x="610" y="316" />
            </Array>
          </mxGeometry>
        </mxCell>
        <mxCell id="JtnIAONKJIrSGNDn3wCX-5" style="edgeStyle=orthogonalEdgeStyle;curved=1;rounded=0;orthogonalLoop=1;jettySize=auto;html=1;exitX=0.5;exitY=1;exitDx=0;exitDy=0;dashed=1;dashPattern=12 12;strokeColor=#FF8000;fontSize=17;" parent="1" source="eUsfLuXrdPTU6Zo4dA0c-30" target="eUsfLuXrdPTU6Zo4dA0c-47" edge="1">
          <mxGeometry relative="1" as="geometry">
            <Array as="points">
              <mxPoint x="1265" y="-110" />
              <mxPoint x="735" y="-110" />
            </Array>
          </mxGeometry>
        </mxCell>
        <mxCell id="JtnIAONKJIrSGNDn3wCX-7" value="query_log&lt;br&gt;查询日志" style="edgeLabel;html=1;align=center;verticalAlign=middle;resizable=0;points=[];fontSize=17;" parent="JtnIAONKJIrSGNDn3wCX-5" vertex="1" connectable="0">
          <mxGeometry x="0.1053" y="16" relative="1" as="geometry">
            <mxPoint x="-47" y="-16" as="offset" />
          </mxGeometry>
        </mxCell>
        <mxCell id="JtnIAONKJIrSGNDn3wCX-100" style="edgeStyle=orthogonalEdgeStyle;curved=1;rounded=0;orthogonalLoop=1;jettySize=auto;html=1;exitX=1;exitY=0.75;exitDx=0;exitDy=0;entryX=1;entryY=0.5;entryDx=0;entryDy=0;dashed=1;dashPattern=12 12;strokeColor=#009900;fontSize=17;" parent="1" source="JtnIAONKJIrSGNDn3wCX-56" target="JtnIAONKJIrSGNDn3wCX-37" edge="1">
          <mxGeometry relative="1" as="geometry">
            <Array as="points">
              <mxPoint x="850" y="-902" />
              <mxPoint x="850" y="-850" />
              <mxPoint x="860" y="-850" />
              <mxPoint x="860" y="431" />
            </Array>
          </mxGeometry>
        </mxCell>
        <mxCell id="JtnIAONKJIrSGNDn3wCX-101" value="market_players_mysql&lt;br&gt;市场主体读日志统计" style="edgeLabel;html=1;align=center;verticalAlign=middle;resizable=0;points=[];fontSize=17;" parent="JtnIAONKJIrSGNDn3wCX-100" vertex="1" connectable="0">
          <mxGeometry x="0.7995" y="-81" relative="1" as="geometry">
            <mxPoint as="offset" />
          </mxGeometry>
        </mxCell>
        <mxCell id="JtnIAONKJIrSGNDn3wCX-6" style="edgeStyle=orthogonalEdgeStyle;curved=1;rounded=0;orthogonalLoop=1;jettySize=auto;html=1;exitX=0.5;exitY=1;exitDx=0;exitDy=0;entryX=1;entryY=0.5;entryDx=0;entryDy=0;dashed=1;dashPattern=12 12;strokeColor=#FF8000;fontSize=17;" parent="1" source="eUsfLuXrdPTU6Zo4dA0c-30" target="eUsfLuXrdPTU6Zo4dA0c-37" edge="1">
          <mxGeometry relative="1" as="geometry" />
        </mxCell>
        <mxCell id="JtnIAONKJIrSGNDn3wCX-8" value="query_log_now&lt;br&gt;查询日志" style="edgeLabel;html=1;align=center;verticalAlign=middle;resizable=0;points=[];fontSize=17;" parent="JtnIAONKJIrSGNDn3wCX-6" vertex="1" connectable="0">
          <mxGeometry x="-0.3662" y="-32" relative="1" as="geometry">
            <mxPoint x="-58" y="-4" as="offset" />
          </mxGeometry>
        </mxCell>
        <mxCell id="JtnIAONKJIrSGNDn3wCX-123" style="edgeStyle=orthogonalEdgeStyle;curved=1;rounded=0;orthogonalLoop=1;jettySize=auto;html=1;exitX=1;exitY=0.5;exitDx=0;exitDy=0;entryX=0.5;entryY=1;entryDx=0;entryDy=0;dashed=1;dashPattern=12 12;strokeColor=#FF0000;fontSize=17;" parent="1" source="JtnIAONKJIrSGNDn3wCX-38" target="JtnIAONKJIrSGNDn3wCX-121" edge="1">
          <mxGeometry relative="1" as="geometry" />
        </mxCell>
        <mxCell id="JtnIAONKJIrSGNDn3wCX-124" value="licence_use_week&lt;br&gt;执照使用日志直接从&lt;br&gt;MySQL转移至达梦" style="edgeLabel;html=1;align=center;verticalAlign=middle;resizable=0;points=[];fontSize=17;" parent="JtnIAONKJIrSGNDn3wCX-123" vertex="1" connectable="0">
          <mxGeometry x="0.0961" y="72" relative="1" as="geometry">
            <mxPoint x="27" as="offset" />
          </mxGeometry>
        </mxCell>
        <mxCell id="JtnIAONKJIrSGNDn3wCX-132" style="edgeStyle=orthogonalEdgeStyle;curved=1;rounded=0;orthogonalLoop=1;jettySize=auto;html=1;exitX=1;exitY=0.5;exitDx=0;exitDy=0;entryX=0;entryY=0.5;entryDx=0;entryDy=0;dashed=1;dashPattern=12 12;strokeColor=#FF0000;fontSize=17;" parent="1" source="JtnIAONKJIrSGNDn3wCX-33" target="JtnIAONKJIrSGNDn3wCX-131" edge="1">
          <mxGeometry relative="1" as="geometry" />
        </mxCell>
        <mxCell id="JtnIAONKJIrSGNDn3wCX-133" style="edgeStyle=orthogonalEdgeStyle;curved=1;rounded=0;orthogonalLoop=1;jettySize=auto;html=1;exitX=1;exitY=0.5;exitDx=0;exitDy=0;entryX=0;entryY=0.5;entryDx=0;entryDy=0;dashed=1;dashPattern=12 12;strokeColor=#FF0000;fontSize=17;" parent="1" source="JtnIAONKJIrSGNDn3wCX-37" target="JtnIAONKJIrSGNDn3wCX-131" edge="1">
          <mxGeometry relative="1" as="geometry" />
        </mxCell>
        <mxCell id="eF53shnwKPSD2UfzyIIH-3" style="edgeStyle=orthogonalEdgeStyle;rounded=0;orthogonalLoop=1;jettySize=auto;html=1;exitX=0;exitY=0;exitDx=180;exitDy=17.5;entryX=0;entryY=0.5;entryDx=0;entryDy=0;curved=1;dashed=1;dashPattern=12 12;exitPerimeter=0;" parent="1" source="h7imEG4-RPFQQV8rX1tC-1" target="Agi0m2Bdz71Y0sU2h22X-7" edge="1">
          <mxGeometry relative="1" as="geometry">
            <mxPoint x="190" y="780" as="sourcePoint" />
            <mxPoint x="300" y="700" as="targetPoint" />
            <Array as="points">
              <mxPoint x="260" y="778" />
              <mxPoint x="260" y="700" />
            </Array>
          </mxGeometry>
        </mxCell>
        <mxCell id="h7imEG4-RPFQQV8rX1tC-13" style="edgeStyle=orthogonalEdgeStyle;curved=1;rounded=0;orthogonalLoop=1;jettySize=auto;html=1;exitX=1;exitY=0.5;exitDx=0;exitDy=0;entryX=0;entryY=0.5;entryDx=0;entryDy=0;entryPerimeter=0;dashed=1;dashPattern=12 12;fontSize=14;" parent="1" source="Agi0m2Bdz71Y0sU2h22X-7" target="h7imEG4-RPFQQV8rX1tC-12" edge="1">
          <mxGeometry relative="1" as="geometry">
            <mxPoint x="490" y="700" as="sourcePoint" />
          </mxGeometry>
        </mxCell>
        <mxCell id="h7imEG4-RPFQQV8rX1tC-6" style="edgeStyle=orthogonalEdgeStyle;curved=1;rounded=0;orthogonalLoop=1;jettySize=auto;html=1;exitX=1;exitY=0.5;exitDx=0;exitDy=0;entryX=0;entryY=0.5;entryDx=0;entryDy=0;dashed=1;dashPattern=12 12;fontSize=14;entryPerimeter=0;" parent="1" source="Agi0m2Bdz71Y0sU2h22X-21" target="h7imEG4-RPFQQV8rX1tC-17" edge="1">
          <mxGeometry relative="1" as="geometry">
            <mxPoint x="1150" y="730" as="targetPoint" />
            <mxPoint x="1050" y="690" as="sourcePoint" />
          </mxGeometry>
        </mxCell>
        <mxCell id="h7imEG4-RPFQQV8rX1tC-8" style="edgeStyle=orthogonalEdgeStyle;curved=1;rounded=0;orthogonalLoop=1;jettySize=auto;html=1;exitX=1;exitY=0.5;exitDx=0;exitDy=0;entryX=0;entryY=0.5;entryDx=0;entryDy=0;dashed=1;dashPattern=12 12;fontSize=14;entryPerimeter=0;" parent="1" source="Agi0m2Bdz71Y0sU2h22X-20" target="h7imEG4-RPFQQV8rX1tC-17" edge="1">
          <mxGeometry relative="1" as="geometry">
            <mxPoint x="1150" y="730" as="targetPoint" />
            <mxPoint x="1050" y="770" as="sourcePoint" />
          </mxGeometry>
        </mxCell>
        <mxCell id="h7imEG4-RPFQQV8rX1tC-20" style="edgeStyle=orthogonalEdgeStyle;curved=1;rounded=0;orthogonalLoop=1;jettySize=auto;html=1;entryX=0;entryY=0.5;entryDx=0;entryDy=0;entryPerimeter=0;dashed=1;dashPattern=12 12;fontSize=14;exitX=1;exitY=0.5;exitDx=0;exitDy=0;" parent="1" source="Agi0m2Bdz71Y0sU2h22X-4" target="h7imEG4-RPFQQV8rX1tC-17" edge="1">
          <mxGeometry relative="1" as="geometry">
            <Array as="points">
              <mxPoint x="515" y="850" />
              <mxPoint x="830" y="850" />
              <mxPoint x="830" y="800" />
              <mxPoint x="1150" y="800" />
              <mxPoint x="1150" y="730" />
            </Array>
            <mxPoint x="560" y="850" as="sourcePoint" />
          </mxGeometry>
        </mxCell>
        <mxCell id="h7imEG4-RPFQQV8rX1tC-9" style="edgeStyle=orthogonalEdgeStyle;curved=1;rounded=0;orthogonalLoop=1;jettySize=auto;html=1;exitX=1;exitY=0.5;exitDx=0;exitDy=0;dashed=1;dashPattern=12 12;fontSize=14;entryX=0;entryY=0.5;entryDx=0;entryDy=0;entryPerimeter=0;" parent="1" target="h7imEG4-RPFQQV8rX1tC-18" edge="1">
          <mxGeometry relative="1" as="geometry">
            <mxPoint x="1150" y="600" as="targetPoint" />
            <mxPoint x="1050" y="600" as="sourcePoint" />
          </mxGeometry>
        </mxCell>
        <mxCell id="h7imEG4-RPFQQV8rX1tC-21" style="edgeStyle=orthogonalEdgeStyle;curved=1;rounded=0;orthogonalLoop=1;jettySize=auto;html=1;exitX=1;exitY=0.5;exitDx=0;exitDy=0;dashed=1;dashPattern=12 12;fontSize=14;" parent="1" source="Agi0m2Bdz71Y0sU2h22X-3" target="h7imEG4-RPFQQV8rX1tC-19" edge="1">
          <mxGeometry relative="1" as="geometry">
            <mxPoint x="490" y="970" as="sourcePoint" />
          </mxGeometry>
        </mxCell>
        <mxCell id="h7imEG4-RPFQQV8rX1tC-14" style="edgeStyle=orthogonalEdgeStyle;curved=1;rounded=0;orthogonalLoop=1;jettySize=auto;html=1;exitX=1;exitY=0.5;exitDx=0;exitDy=0;exitPerimeter=0;entryX=0;entryY=0.5;entryDx=0;entryDy=0;dashed=1;dashPattern=12 12;fontSize=14;" parent="1" source="h7imEG4-RPFQQV8rX1tC-12" target="Agi0m2Bdz71Y0sU2h22X-21" edge="1">
          <mxGeometry relative="1" as="geometry">
            <mxPoint x="860" y="690" as="targetPoint" />
          </mxGeometry>
        </mxCell>
        <mxCell id="h7imEG4-RPFQQV8rX1tC-15" style="edgeStyle=orthogonalEdgeStyle;curved=1;rounded=0;orthogonalLoop=1;jettySize=auto;html=1;exitX=1;exitY=0.5;exitDx=0;exitDy=0;exitPerimeter=0;entryX=0;entryY=0.5;entryDx=0;entryDy=0;dashed=1;dashPattern=12 12;fontSize=14;" parent="1" source="h7imEG4-RPFQQV8rX1tC-12" target="Agi0m2Bdz71Y0sU2h22X-20" edge="1">
          <mxGeometry relative="1" as="geometry">
            <mxPoint x="860" y="770" as="targetPoint" />
          </mxGeometry>
        </mxCell>
        <mxCell id="h7imEG4-RPFQQV8rX1tC-16" style="edgeStyle=orthogonalEdgeStyle;curved=1;rounded=0;orthogonalLoop=1;jettySize=auto;html=1;exitX=1;exitY=0.5;exitDx=0;exitDy=0;exitPerimeter=0;entryX=0;entryY=0.5;entryDx=0;entryDy=0;dashed=1;dashPattern=12 12;fontSize=14;" parent="1" source="h7imEG4-RPFQQV8rX1tC-12" target="Agi0m2Bdz71Y0sU2h22X-22" edge="1">
          <mxGeometry relative="1" as="geometry">
            <mxPoint x="860" y="600" as="targetPoint" />
            <Array as="points">
              <mxPoint x="820" y="700" />
              <mxPoint x="820" y="600" />
            </Array>
          </mxGeometry>
        </mxCell>
        <mxCell id="h7imEG4-RPFQQV8rX1tC-12" value="Hive&lt;br&gt;business_licence_employ" style="strokeWidth=2;html=1;shape=mxgraph.flowchart.direct_data;whiteSpace=wrap;fontSize=14;align=center;" parent="1" vertex="1">
          <mxGeometry x="570" y="670" width="170" height="60" as="geometry" />
        </mxCell>
        <mxCell id="h7imEG4-RPFQQV8rX1tC-17" value="&lt;div style=&quot;border-color: var(--border-color); font-size: 15px;&quot;&gt;MySQL&lt;/div&gt;&lt;div style=&quot;border-color: var(--border-color); font-size: 15px;&quot;&gt;licence_use&lt;/div&gt;" style="strokeWidth=2;html=1;shape=mxgraph.flowchart.direct_data;whiteSpace=wrap;fontSize=14;align=center;" parent="1" vertex="1">
          <mxGeometry x="1170" y="700" width="110" height="60" as="geometry" />
        </mxCell>
        <mxCell id="h7imEG4-RPFQQV8rX1tC-18" value="&lt;div style=&quot;border-color: var(--border-color); font-size: 15px;&quot;&gt;&lt;div style=&quot;border-color: var(--border-color);&quot;&gt;达梦&lt;/div&gt;&lt;div style=&quot;border-color: var(--border-color);&quot;&gt;licence_use_&amp;lt;yyyy&amp;gt;_&amp;lt;MM&amp;gt;&lt;/div&gt;&lt;/div&gt;" style="strokeWidth=2;html=1;shape=mxgraph.flowchart.direct_data;whiteSpace=wrap;fontSize=14;align=center;" parent="1" vertex="1">
          <mxGeometry x="1160" y="570" width="190" height="60" as="geometry" />
        </mxCell>
        <mxCell id="h7imEG4-RPFQQV8rX1tC-23" style="edgeStyle=orthogonalEdgeStyle;curved=1;rounded=0;orthogonalLoop=1;jettySize=auto;html=1;exitX=1;exitY=0.5;exitDx=0;exitDy=0;exitPerimeter=0;entryX=0;entryY=0.5;entryDx=0;entryDy=0;dashed=1;dashPattern=12 12;fontSize=14;" parent="1" source="h7imEG4-RPFQQV8rX1tC-19" target="Agi0m2Bdz71Y0sU2h22X-18" edge="1">
          <mxGeometry relative="1" as="geometry">
            <mxPoint x="860" y="930" as="targetPoint" />
          </mxGeometry>
        </mxCell>
        <mxCell id="h7imEG4-RPFQQV8rX1tC-27" style="edgeStyle=orthogonalEdgeStyle;curved=1;rounded=0;orthogonalLoop=1;jettySize=auto;html=1;exitX=1;exitY=0.5;exitDx=0;exitDy=0;exitPerimeter=0;entryX=0;entryY=0.5;entryDx=0;entryDy=0;dashed=1;dashPattern=12 12;fontSize=14;" parent="1" source="h7imEG4-RPFQQV8rX1tC-19" target="Agi0m2Bdz71Y0sU2h22X-17" edge="1">
          <mxGeometry relative="1" as="geometry">
            <mxPoint x="860" y="1030" as="targetPoint" />
            <Array as="points">
              <mxPoint x="840" y="970" />
              <mxPoint x="840" y="1031" />
            </Array>
          </mxGeometry>
        </mxCell>
        <mxCell id="h7imEG4-RPFQQV8rX1tC-19" value="Hive&lt;br&gt;licenses" style="strokeWidth=2;html=1;shape=mxgraph.flowchart.direct_data;whiteSpace=wrap;fontSize=14;align=center;" parent="1" vertex="1">
          <mxGeometry x="575" y="940" width="170" height="60" as="geometry" />
        </mxCell>
        <mxCell id="h7imEG4-RPFQQV8rX1tC-25" style="edgeStyle=orthogonalEdgeStyle;curved=1;rounded=0;orthogonalLoop=1;jettySize=auto;html=1;exitX=1;exitY=0.5;exitDx=0;exitDy=0;entryX=0;entryY=0.5;entryDx=0;entryDy=0;entryPerimeter=0;dashed=1;dashPattern=12 12;fontSize=14;" parent="1" source="Agi0m2Bdz71Y0sU2h22X-18" target="h7imEG4-RPFQQV8rX1tC-24" edge="1">
          <mxGeometry relative="1" as="geometry">
            <mxPoint x="1050" y="930" as="sourcePoint" />
          </mxGeometry>
        </mxCell>
        <mxCell id="h7imEG4-RPFQQV8rX1tC-24" value="&lt;div style=&quot;border-color: var(--border-color); font-size: 15px;&quot;&gt;MySQL&lt;/div&gt;&lt;div style=&quot;border-color: var(--border-color); font-size: 15px;&quot;&gt;licence_recevie_y&lt;/div&gt;" style="strokeWidth=2;html=1;shape=mxgraph.flowchart.direct_data;whiteSpace=wrap;fontSize=14;align=center;" parent="1" vertex="1">
          <mxGeometry x="1186" y="900" width="124" height="60" as="geometry" />
        </mxCell>
        <mxCell id="h7imEG4-RPFQQV8rX1tC-29" style="edgeStyle=orthogonalEdgeStyle;curved=1;rounded=0;orthogonalLoop=1;jettySize=auto;html=1;exitX=1;exitY=0.5;exitDx=0;exitDy=0;entryX=0;entryY=0.5;entryDx=0;entryDy=0;entryPerimeter=0;dashed=1;dashPattern=12 12;fontSize=14;" parent="1" source="Agi0m2Bdz71Y0sU2h22X-17" target="h7imEG4-RPFQQV8rX1tC-28" edge="1">
          <mxGeometry relative="1" as="geometry">
            <mxPoint x="1050" y="1030" as="sourcePoint" />
          </mxGeometry>
        </mxCell>
        <mxCell id="xEwf0O-MvUgcKREUFzJi-47" style="edgeStyle=orthogonalEdgeStyle;curved=1;rounded=0;orthogonalLoop=1;jettySize=auto;html=1;exitX=1;exitY=0.5;exitDx=0;exitDy=0;exitPerimeter=0;entryX=0;entryY=0.5;entryDx=0;entryDy=0;dashed=1;dashPattern=12 12;" parent="1" source="h7imEG4-RPFQQV8rX1tC-28" target="Agi0m2Bdz71Y0sU2h22X-19" edge="1">
          <mxGeometry relative="1" as="geometry">
            <mxPoint x="1540" y="1177" as="targetPoint" />
            <Array as="points">
              <mxPoint x="1500" y="1070" />
              <mxPoint x="1500" y="1177" />
            </Array>
          </mxGeometry>
        </mxCell>
        <mxCell id="h7imEG4-RPFQQV8rX1tC-28" value="&lt;div style=&quot;border-color: var(--border-color); font-size: 15px;&quot;&gt;MySQL&lt;/div&gt;&lt;div style=&quot;border-color: var(--border-color); font-size: 15px;&quot;&gt;license_receive&lt;/div&gt;" style="strokeWidth=2;html=1;shape=mxgraph.flowchart.direct_data;whiteSpace=wrap;fontSize=14;align=center;" parent="1" vertex="1">
          <mxGeometry x="1193" y="1040" width="124" height="60" as="geometry" />
        </mxCell>
        <mxCell id="h7imEG4-RPFQQV8rX1tC-34" style="edgeStyle=orthogonalEdgeStyle;curved=1;rounded=0;orthogonalLoop=1;jettySize=auto;html=1;exitX=1;exitY=0.5;exitDx=0;exitDy=0;entryX=0;entryY=0.5;entryDx=0;entryDy=0;entryPerimeter=0;dashed=1;dashPattern=12 12;fontSize=14;" parent="1" source="Agi0m2Bdz71Y0sU2h22X-1" target="h7imEG4-RPFQQV8rX1tC-28" edge="1">
          <mxGeometry relative="1" as="geometry">
            <mxPoint x="490" y="1110" as="sourcePoint" />
          </mxGeometry>
        </mxCell>
        <mxCell id="h7imEG4-RPFQQV8rX1tC-37" style="edgeStyle=orthogonalEdgeStyle;curved=1;rounded=0;orthogonalLoop=1;jettySize=auto;html=1;exitX=0;exitY=0;exitDx=180;exitDy=17.5;exitPerimeter=0;dashed=1;dashPattern=12 12;fontSize=14;entryX=0;entryY=0.5;entryDx=0;entryDy=0;" parent="1" source="h7imEG4-RPFQQV8rX1tC-35" target="Agi0m2Bdz71Y0sU2h22X-8" edge="1">
          <mxGeometry relative="1" as="geometry">
            <mxPoint x="300" y="1227" as="targetPoint" />
          </mxGeometry>
        </mxCell>
        <mxCell id="xEwf0O-MvUgcKREUFzJi-8" style="edgeStyle=orthogonalEdgeStyle;curved=1;rounded=0;orthogonalLoop=1;jettySize=auto;html=1;exitX=0;exitY=0;exitDx=180;exitDy=17.5;exitPerimeter=0;entryX=0;entryY=0.5;entryDx=0;entryDy=0;dashed=1;dashPattern=12 12;" parent="1" source="h7imEG4-RPFQQV8rX1tC-35" target="Agi0m2Bdz71Y0sU2h22X-9" edge="1">
          <mxGeometry relative="1" as="geometry">
            <mxPoint x="300" y="1400" as="targetPoint" />
            <Array as="points">
              <mxPoint x="250" y="1228" />
              <mxPoint x="250" y="1395" />
            </Array>
          </mxGeometry>
        </mxCell>
        <mxCell id="xEwf0O-MvUgcKREUFzJi-2" style="edgeStyle=orthogonalEdgeStyle;rounded=0;orthogonalLoop=1;jettySize=auto;html=1;exitX=1;exitY=0.5;exitDx=0;exitDy=0;dashed=1;dashPattern=12 12;curved=1;" parent="1" target="xEwf0O-MvUgcKREUFzJi-1" edge="1">
          <mxGeometry relative="1" as="geometry">
            <mxPoint x="490" y="1227" as="sourcePoint" />
          </mxGeometry>
        </mxCell>
        <mxCell id="xEwf0O-MvUgcKREUFzJi-4" style="edgeStyle=orthogonalEdgeStyle;rounded=0;orthogonalLoop=1;jettySize=auto;html=1;exitX=1;exitY=0.5;exitDx=0;exitDy=0;exitPerimeter=0;dashed=1;dashPattern=12 12;curved=1;entryX=0;entryY=0.5;entryDx=0;entryDy=0;" parent="1" source="xEwf0O-MvUgcKREUFzJi-1" target="Agi0m2Bdz71Y0sU2h22X-16" edge="1">
          <mxGeometry relative="1" as="geometry">
            <mxPoint x="860" y="1227" as="targetPoint" />
          </mxGeometry>
        </mxCell>
        <mxCell id="xEwf0O-MvUgcKREUFzJi-1" value="Hive&lt;br&gt;enterprise&lt;br&gt;enterprise_log" style="strokeWidth=2;html=1;shape=mxgraph.flowchart.direct_data;whiteSpace=wrap;fontSize=14;align=center;" parent="1" vertex="1">
          <mxGeometry x="575" y="1197" width="170" height="60" as="geometry" />
        </mxCell>
        <mxCell id="xEwf0O-MvUgcKREUFzJi-6" style="edgeStyle=orthogonalEdgeStyle;curved=1;rounded=0;orthogonalLoop=1;jettySize=auto;html=1;exitX=1;exitY=0.5;exitDx=0;exitDy=0;entryX=0;entryY=0.5;entryDx=0;entryDy=0;entryPerimeter=0;dashed=1;dashPattern=12 12;" parent="1" source="Agi0m2Bdz71Y0sU2h22X-16" target="xEwf0O-MvUgcKREUFzJi-5" edge="1">
          <mxGeometry relative="1" as="geometry">
            <mxPoint x="1050" y="1227" as="sourcePoint" />
          </mxGeometry>
        </mxCell>
        <mxCell id="xEwf0O-MvUgcKREUFzJi-48" style="edgeStyle=orthogonalEdgeStyle;curved=1;rounded=0;orthogonalLoop=1;jettySize=auto;html=1;exitX=1;exitY=0.5;exitDx=0;exitDy=0;exitPerimeter=0;entryX=0;entryY=0.5;entryDx=0;entryDy=0;dashed=1;dashPattern=12 12;" parent="1" source="xEwf0O-MvUgcKREUFzJi-5" target="Agi0m2Bdz71Y0sU2h22X-19" edge="1">
          <mxGeometry relative="1" as="geometry">
            <mxPoint x="1540" y="1177" as="targetPoint" />
            <Array as="points">
              <mxPoint x="1490" y="1287" />
              <mxPoint x="1490" y="1177" />
            </Array>
          </mxGeometry>
        </mxCell>
        <mxCell id="xEwf0O-MvUgcKREUFzJi-5" value="&lt;div style=&quot;border-color: var(--border-color); font-size: 15px;&quot;&gt;MySQL&lt;/div&gt;&lt;div style=&quot;border-color: var(--border-color); font-size: 15px;&quot;&gt;market_players&lt;/div&gt;" style="strokeWidth=2;html=1;shape=mxgraph.flowchart.direct_data;whiteSpace=wrap;fontSize=14;align=center;" parent="1" vertex="1">
          <mxGeometry x="1193" y="1257" width="124" height="60" as="geometry" />
        </mxCell>
        <mxCell id="xEwf0O-MvUgcKREUFzJi-10" style="edgeStyle=orthogonalEdgeStyle;curved=1;rounded=0;orthogonalLoop=1;jettySize=auto;html=1;exitX=1;exitY=0.5;exitDx=0;exitDy=0;entryX=0;entryY=0.5;entryDx=0;entryDy=0;entryPerimeter=0;dashed=1;dashPattern=12 12;" parent="1" source="Agi0m2Bdz71Y0sU2h22X-9" target="xEwf0O-MvUgcKREUFzJi-5" edge="1">
          <mxGeometry relative="1" as="geometry">
            <mxPoint x="490" y="1400" as="sourcePoint" />
          </mxGeometry>
        </mxCell>
        <mxCell id="xEwf0O-MvUgcKREUFzJi-14" value="" style="group" parent="1" vertex="1" connectable="0">
          <mxGeometry x="-10" y="950" width="180" height="40" as="geometry" />
        </mxCell>
        <mxCell id="h7imEG4-RPFQQV8rX1tC-2" value="/user/logstash/lic-state*" style="verticalLabelPosition=bottom;verticalAlign=top;html=1;shape=mxgraph.basic.layered_rect;dx=10;outlineConnect=0;whiteSpace=wrap;fontSize=14;" parent="xEwf0O-MvUgcKREUFzJi-14" vertex="1">
          <mxGeometry width="180" height="40" as="geometry" />
        </mxCell>
        <mxCell id="xEwf0O-MvUgcKREUFzJi-12" value="执照下载日志" style="rounded=0;whiteSpace=wrap;html=1;fillColor=none;strokeColor=none;" parent="xEwf0O-MvUgcKREUFzJi-14" vertex="1">
          <mxGeometry x="20" width="120" height="30" as="geometry" />
        </mxCell>
        <mxCell id="xEwf0O-MvUgcKREUFzJi-16" value="" style="group" parent="1" vertex="1" connectable="0">
          <mxGeometry x="-10" y="760" width="180" height="40" as="geometry" />
        </mxCell>
        <mxCell id="h7imEG4-RPFQQV8rX1tC-1" value="/user/logstash/loggather-*" style="verticalLabelPosition=bottom;verticalAlign=top;html=1;shape=mxgraph.basic.layered_rect;dx=10;outlineConnect=0;whiteSpace=wrap;fontSize=14;" parent="xEwf0O-MvUgcKREUFzJi-16" vertex="1">
          <mxGeometry width="180" height="40" as="geometry" />
        </mxCell>
        <mxCell id="xEwf0O-MvUgcKREUFzJi-11" value="执照使用日志" style="rounded=0;whiteSpace=wrap;html=1;fillColor=none;strokeColor=none;" parent="xEwf0O-MvUgcKREUFzJi-16" vertex="1">
          <mxGeometry x="20" width="120" height="30" as="geometry" />
        </mxCell>
        <mxCell id="xEwf0O-MvUgcKREUFzJi-17" style="edgeStyle=orthogonalEdgeStyle;curved=1;rounded=0;orthogonalLoop=1;jettySize=auto;html=1;exitX=0;exitY=0;exitDx=180;exitDy=17.5;exitPerimeter=0;entryX=0;entryY=0.5;entryDx=0;entryDy=0;dashed=1;dashPattern=12 12;" parent="1" source="h7imEG4-RPFQQV8rX1tC-2" target="Agi0m2Bdz71Y0sU2h22X-3" edge="1">
          <mxGeometry relative="1" as="geometry">
            <mxPoint x="300" y="970" as="targetPoint" />
          </mxGeometry>
        </mxCell>
        <mxCell id="xEwf0O-MvUgcKREUFzJi-18" value="" style="group" parent="1" vertex="1" connectable="0">
          <mxGeometry x="-10" y="1524" width="180" height="40" as="geometry" />
        </mxCell>
        <mxCell id="xEwf0O-MvUgcKREUFzJi-19" value="/user/logstash/mgr-log-*" style="verticalLabelPosition=bottom;verticalAlign=top;html=1;shape=mxgraph.basic.layered_rect;dx=10;outlineConnect=0;whiteSpace=wrap;fontSize=14;" parent="xEwf0O-MvUgcKREUFzJi-18" vertex="1">
          <mxGeometry width="180" height="40" as="geometry" />
        </mxCell>
        <mxCell id="xEwf0O-MvUgcKREUFzJi-20" value="?" style="rounded=0;whiteSpace=wrap;html=1;fillColor=none;strokeColor=none;" parent="xEwf0O-MvUgcKREUFzJi-18" vertex="1">
          <mxGeometry x="30" width="120" height="30" as="geometry" />
        </mxCell>
        <mxCell id="xEwf0O-MvUgcKREUFzJi-28" style="edgeStyle=orthogonalEdgeStyle;curved=1;rounded=0;orthogonalLoop=1;jettySize=auto;html=1;entryX=0;entryY=0.5;entryDx=0;entryDy=0;entryPerimeter=0;dashed=1;dashPattern=12 12;exitX=1;exitY=0.5;exitDx=0;exitDy=0;" parent="1" source="Agi0m2Bdz71Y0sU2h22X-10" target="xEwf0O-MvUgcKREUFzJi-27" edge="1">
          <mxGeometry relative="1" as="geometry">
            <mxPoint x="480" y="1541" as="sourcePoint" />
          </mxGeometry>
        </mxCell>
        <mxCell id="xEwf0O-MvUgcKREUFzJi-26" style="edgeStyle=orthogonalEdgeStyle;curved=1;rounded=0;orthogonalLoop=1;jettySize=auto;html=1;exitX=0;exitY=0;exitDx=180;exitDy=17.5;exitPerimeter=0;entryX=0;entryY=0.5;entryDx=0;entryDy=0;dashed=1;dashPattern=12 12;" parent="1" source="xEwf0O-MvUgcKREUFzJi-19" target="Agi0m2Bdz71Y0sU2h22X-10" edge="1">
          <mxGeometry relative="1" as="geometry">
            <mxPoint x="290" y="1541" as="targetPoint" />
          </mxGeometry>
        </mxCell>
        <mxCell id="xEwf0O-MvUgcKREUFzJi-27" value="Hive&lt;br&gt;licmgr.LICENSE" style="strokeWidth=2;html=1;shape=mxgraph.flowchart.direct_data;whiteSpace=wrap;fontSize=14;align=center;" parent="1" vertex="1">
          <mxGeometry x="571" y="1511" width="170" height="60" as="geometry" />
        </mxCell>
        <mxCell id="xEwf0O-MvUgcKREUFzJi-31" style="edgeStyle=orthogonalEdgeStyle;curved=1;rounded=0;orthogonalLoop=1;jettySize=auto;html=1;exitX=1;exitY=0.5;exitDx=0;exitDy=0;exitPerimeter=0;entryX=0;entryY=0.5;entryDx=0;entryDy=0;dashed=1;dashPattern=12 12;" parent="1" source="xEwf0O-MvUgcKREUFzJi-29" target="Agi0m2Bdz71Y0sU2h22X-14" edge="1">
          <mxGeometry relative="1" as="geometry">
            <mxPoint x="309.5" y="2080" as="targetPoint" />
          </mxGeometry>
        </mxCell>
        <mxCell id="xEwf0O-MvUgcKREUFzJi-33" style="edgeStyle=orthogonalEdgeStyle;curved=1;rounded=0;orthogonalLoop=1;jettySize=auto;html=1;exitX=1;exitY=0.5;exitDx=0;exitDy=0;exitPerimeter=0;entryX=0;entryY=0.5;entryDx=0;entryDy=0;dashed=1;dashPattern=12 12;" parent="1" source="xEwf0O-MvUgcKREUFzJi-29" target="Agi0m2Bdz71Y0sU2h22X-15" edge="1">
          <mxGeometry relative="1" as="geometry">
            <mxPoint x="309.5" y="2170" as="targetPoint" />
          </mxGeometry>
        </mxCell>
        <mxCell id="xEwf0O-MvUgcKREUFzJi-29" value="达梦&lt;br&gt;manager.QUERY_LOG" style="strokeWidth=2;html=1;shape=mxgraph.flowchart.direct_data;whiteSpace=wrap;fontSize=14;align=center;" parent="1" vertex="1">
          <mxGeometry x="-15.5" y="2090" width="170" height="60" as="geometry" />
        </mxCell>
        <mxCell id="xEwf0O-MvUgcKREUFzJi-35" style="edgeStyle=orthogonalEdgeStyle;curved=1;rounded=0;orthogonalLoop=1;jettySize=auto;html=1;exitX=1;exitY=0.5;exitDx=0;exitDy=0;entryX=0;entryY=0.5;entryDx=0;entryDy=0;entryPerimeter=0;dashed=1;dashPattern=12 12;" parent="1" source="Agi0m2Bdz71Y0sU2h22X-14" target="xEwf0O-MvUgcKREUFzJi-34" edge="1">
          <mxGeometry relative="1" as="geometry">
            <mxPoint x="499.5" y="2080" as="sourcePoint" />
          </mxGeometry>
        </mxCell>
        <mxCell id="xEwf0O-MvUgcKREUFzJi-37" style="edgeStyle=orthogonalEdgeStyle;curved=1;rounded=0;orthogonalLoop=1;jettySize=auto;html=1;exitX=1;exitY=0.5;exitDx=0;exitDy=0;entryX=0;entryY=0.5;entryDx=0;entryDy=0;entryPerimeter=0;dashed=1;dashPattern=12 12;" parent="1" source="Agi0m2Bdz71Y0sU2h22X-15" target="xEwf0O-MvUgcKREUFzJi-36" edge="1">
          <mxGeometry relative="1" as="geometry">
            <mxPoint x="499.5" y="2170" as="sourcePoint" />
          </mxGeometry>
        </mxCell>
        <mxCell id="xEwf0O-MvUgcKREUFzJi-34" value="&lt;div style=&quot;border-color: var(--border-color); font-size: 15px;&quot;&gt;MySQL&lt;/div&gt;&lt;div style=&quot;border-color: var(--border-color); font-size: 15px;&quot;&gt;interface_monitor.&lt;span style=&quot;background-color: initial; font-size: 14px;&quot;&gt;query_log&lt;/span&gt;&lt;/div&gt;" style="strokeWidth=2;html=1;shape=mxgraph.flowchart.direct_data;whiteSpace=wrap;fontSize=14;align=center;" parent="1" vertex="1">
          <mxGeometry x="602.5" y="2050" width="197" height="60" as="geometry" />
        </mxCell>
        <mxCell id="xEwf0O-MvUgcKREUFzJi-36" value="&lt;div style=&quot;border-color: var(--border-color); font-size: 15px;&quot;&gt;MySQL&lt;/div&gt;&lt;div style=&quot;border-color: var(--border-color); font-size: 15px;&quot;&gt;yyfx.&lt;span style=&quot;background-color: initial; font-size: 14px;&quot;&gt;query_log&lt;/span&gt;&lt;/div&gt;" style="strokeWidth=2;html=1;shape=mxgraph.flowchart.direct_data;whiteSpace=wrap;fontSize=14;align=center;" parent="1" vertex="1">
          <mxGeometry x="602.5" y="2140" width="187" height="60" as="geometry" />
        </mxCell>
        <mxCell id="xEwf0O-MvUgcKREUFzJi-38" value="" style="group" parent="1" vertex="1" connectable="0">
          <mxGeometry x="-10" y="1802" width="180" height="40" as="geometry" />
        </mxCell>
        <mxCell id="xEwf0O-MvUgcKREUFzJi-39" value="/user/logstash/real-name*" style="verticalLabelPosition=bottom;verticalAlign=top;html=1;shape=mxgraph.basic.layered_rect;dx=10;outlineConnect=0;whiteSpace=wrap;fontSize=14;" parent="xEwf0O-MvUgcKREUFzJi-38" vertex="1">
          <mxGeometry width="180" height="40" as="geometry" />
        </mxCell>
        <mxCell id="xEwf0O-MvUgcKREUFzJi-40" value="?" style="rounded=0;whiteSpace=wrap;html=1;fillColor=none;strokeColor=none;" parent="xEwf0O-MvUgcKREUFzJi-38" vertex="1">
          <mxGeometry x="30" width="120" height="30" as="geometry" />
        </mxCell>
        <mxCell id="xEwf0O-MvUgcKREUFzJi-44" style="edgeStyle=orthogonalEdgeStyle;curved=1;rounded=0;orthogonalLoop=1;jettySize=auto;html=1;exitX=1;exitY=0.5;exitDx=0;exitDy=0;entryX=0;entryY=0.5;entryDx=0;entryDy=0;entryPerimeter=0;dashed=1;dashPattern=12 12;" parent="1" source="Agi0m2Bdz71Y0sU2h22X-11" target="xEwf0O-MvUgcKREUFzJi-43" edge="1">
          <mxGeometry relative="1" as="geometry">
            <mxPoint x="480" y="1820" as="sourcePoint" />
          </mxGeometry>
        </mxCell>
        <mxCell id="xEwf0O-MvUgcKREUFzJi-42" style="edgeStyle=orthogonalEdgeStyle;curved=1;rounded=0;orthogonalLoop=1;jettySize=auto;html=1;exitX=0;exitY=0;exitDx=180;exitDy=17.5;exitPerimeter=0;entryX=0;entryY=0.5;entryDx=0;entryDy=0;dashed=1;dashPattern=12 12;" parent="1" source="xEwf0O-MvUgcKREUFzJi-39" target="Agi0m2Bdz71Y0sU2h22X-11" edge="1">
          <mxGeometry relative="1" as="geometry">
            <mxPoint x="290" y="1820" as="targetPoint" />
          </mxGeometry>
        </mxCell>
        <mxCell id="xEwf0O-MvUgcKREUFzJi-43" value="Hive&lt;br&gt;real_name" style="strokeWidth=2;html=1;shape=mxgraph.flowchart.direct_data;whiteSpace=wrap;fontSize=14;align=center;" parent="1" vertex="1">
          <mxGeometry x="570" y="1790" width="170" height="60" as="geometry" />
        </mxCell>
        <mxCell id="xEwf0O-MvUgcKREUFzJi-50" style="edgeStyle=orthogonalEdgeStyle;curved=1;rounded=0;orthogonalLoop=1;jettySize=auto;html=1;exitX=1;exitY=0.56;exitDx=0;exitDy=0;entryX=0;entryY=0.5;entryDx=0;entryDy=0;entryPerimeter=0;dashed=1;dashPattern=12 12;exitPerimeter=0;" parent="1" source="Agi0m2Bdz71Y0sU2h22X-19" target="xEwf0O-MvUgcKREUFzJi-49" edge="1">
          <mxGeometry relative="1" as="geometry">
            <mxPoint x="1730" y="1177" as="sourcePoint" />
          </mxGeometry>
        </mxCell>
        <mxCell id="xEwf0O-MvUgcKREUFzJi-49" value="&lt;div style=&quot;border-color: var(--border-color); font-size: 15px;&quot;&gt;达梦&lt;/div&gt;&lt;div style=&quot;border-color: var(--border-color); font-size: 15px;&quot;&gt;SIGNLICENSE.WFWSIGNLICENSE&lt;/div&gt;" style="strokeWidth=2;html=1;shape=mxgraph.flowchart.direct_data;whiteSpace=wrap;fontSize=14;align=center;" parent="1" vertex="1">
          <mxGeometry x="1900" y="1150" width="250" height="60" as="geometry" />
        </mxCell>
        <mxCell id="Agi0m2Bdz71Y0sU2h22X-1" value="license_receive_mysql" style="shape=step;perimeter=stepPerimeter;whiteSpace=wrap;html=1;fixedSize=1;fillColor=#f8cecc;strokeColor=#b85450;fontSize=15;" parent="1" vertex="1">
          <mxGeometry x="290" y="1085" width="200" height="50" as="geometry" />
        </mxCell>
        <mxCell id="Agi0m2Bdz71Y0sU2h22X-2" style="edgeStyle=orthogonalEdgeStyle;rounded=0;orthogonalLoop=1;jettySize=auto;html=1;exitX=0;exitY=0;exitDx=180;exitDy=17.5;exitPerimeter=0;entryX=0;entryY=0.5;entryDx=0;entryDy=0;fontSize=15;curved=1;dashed=1;dashPattern=12 12;" parent="1" source="h7imEG4-RPFQQV8rX1tC-2" target="Agi0m2Bdz71Y0sU2h22X-1" edge="1">
          <mxGeometry relative="1" as="geometry">
            <Array as="points">
              <mxPoint x="240" y="968" />
              <mxPoint x="240" y="1110" />
            </Array>
          </mxGeometry>
        </mxCell>
        <mxCell id="Agi0m2Bdz71Y0sU2h22X-3" value="license_inserthive" style="shape=step;perimeter=stepPerimeter;whiteSpace=wrap;html=1;fixedSize=1;fillColor=#fff2cc;strokeColor=#d6b656;fontSize=15;" parent="1" vertex="1">
          <mxGeometry x="290" y="945" width="200" height="50" as="geometry" />
        </mxCell>
        <mxCell id="Agi0m2Bdz71Y0sU2h22X-5" style="edgeStyle=orthogonalEdgeStyle;curved=1;rounded=0;orthogonalLoop=1;jettySize=auto;html=1;exitX=0;exitY=0;exitDx=180;exitDy=17.5;exitPerimeter=0;entryX=0;entryY=0.5;entryDx=0;entryDy=0;dashed=1;dashPattern=12 12;fontSize=15;" parent="1" source="h7imEG4-RPFQQV8rX1tC-1" target="Agi0m2Bdz71Y0sU2h22X-4" edge="1">
          <mxGeometry relative="1" as="geometry">
            <Array as="points">
              <mxPoint x="270" y="778" />
              <mxPoint x="270" y="851" />
            </Array>
          </mxGeometry>
        </mxCell>
        <mxCell id="Agi0m2Bdz71Y0sU2h22X-6" style="edgeStyle=orthogonalEdgeStyle;curved=1;rounded=0;orthogonalLoop=1;jettySize=auto;html=1;exitX=0;exitY=0;exitDx=180;exitDy=17.5;exitPerimeter=0;entryX=0;entryY=0.5;entryDx=0;entryDy=0;dashed=1;dashPattern=12 12;fontSize=15;" parent="1" source="h7imEG4-RPFQQV8rX1tC-2" target="Agi0m2Bdz71Y0sU2h22X-4" edge="1">
          <mxGeometry relative="1" as="geometry">
            <Array as="points">
              <mxPoint x="260" y="968" />
              <mxPoint x="260" y="851" />
            </Array>
          </mxGeometry>
        </mxCell>
        <mxCell id="Agi0m2Bdz71Y0sU2h22X-7" value="empoly_inserthive" style="shape=step;perimeter=stepPerimeter;whiteSpace=wrap;html=1;fixedSize=1;fillColor=#fff2cc;strokeColor=#d6b656;fontSize=15;" parent="1" vertex="1">
          <mxGeometry x="292" y="675" width="200" height="50" as="geometry" />
        </mxCell>
        <mxCell id="Agi0m2Bdz71Y0sU2h22X-13" value="" style="edgeStyle=orthogonalEdgeStyle;curved=1;rounded=0;orthogonalLoop=1;jettySize=auto;html=1;dashed=1;dashPattern=12 12;fontSize=15;exitX=1;exitY=0.5;exitDx=0;exitDy=0;" parent="1" source="Agi0m2Bdz71Y0sU2h22X-8" target="xEwf0O-MvUgcKREUFzJi-1" edge="1">
          <mxGeometry relative="1" as="geometry" />
        </mxCell>
        <mxCell id="Agi0m2Bdz71Y0sU2h22X-8" value="market_inserthive" style="shape=step;perimeter=stepPerimeter;whiteSpace=wrap;html=1;fixedSize=1;fillColor=#fff2cc;strokeColor=#d6b656;fontSize=15;" parent="1" vertex="1">
          <mxGeometry x="292" y="1202" width="200" height="50" as="geometry" />
        </mxCell>
        <mxCell id="Agi0m2Bdz71Y0sU2h22X-9" value="market_players_mysql" style="shape=step;perimeter=stepPerimeter;whiteSpace=wrap;html=1;fixedSize=1;fillColor=#f8cecc;strokeColor=#b85450;fontSize=15;" parent="1" vertex="1">
          <mxGeometry x="295" y="1370" width="200" height="50" as="geometry" />
        </mxCell>
        <mxCell id="Agi0m2Bdz71Y0sU2h22X-10" value="mgr_log_inserthive" style="shape=step;perimeter=stepPerimeter;whiteSpace=wrap;html=1;fixedSize=1;fillColor=#fff2cc;strokeColor=#d6b656;fontSize=15;" parent="1" vertex="1">
          <mxGeometry x="285" y="1516" width="200" height="50" as="geometry" />
        </mxCell>
        <mxCell id="Agi0m2Bdz71Y0sU2h22X-11" value="real_name_inserthive" style="shape=step;perimeter=stepPerimeter;whiteSpace=wrap;html=1;fixedSize=1;fillColor=#fff2cc;strokeColor=#d6b656;fontSize=15;" parent="1" vertex="1">
          <mxGeometry x="285" y="1795" width="200" height="50" as="geometry" />
        </mxCell>
        <mxCell id="Agi0m2Bdz71Y0sU2h22X-14" value="query_log" style="shape=step;perimeter=stepPerimeter;whiteSpace=wrap;html=1;fixedSize=1;fillColor=#fff2cc;strokeColor=#d6b656;fontSize=15;" parent="1" vertex="1">
          <mxGeometry x="299.5" y="2055" width="200" height="50" as="geometry" />
        </mxCell>
        <mxCell id="Agi0m2Bdz71Y0sU2h22X-15" value="query_log_now" style="shape=step;perimeter=stepPerimeter;whiteSpace=wrap;html=1;fixedSize=1;fillColor=#fff2cc;strokeColor=#d6b656;fontSize=15;" parent="1" vertex="1">
          <mxGeometry x="299.5" y="2145" width="200" height="50" as="geometry" />
        </mxCell>
        <mxCell id="Agi0m2Bdz71Y0sU2h22X-16" value="market_players_hive" style="shape=step;perimeter=stepPerimeter;whiteSpace=wrap;html=1;fixedSize=1;fillColor=#fff2cc;strokeColor=#d6b656;fontSize=15;" parent="1" vertex="1">
          <mxGeometry x="850" y="1202" width="200" height="50" as="geometry" />
        </mxCell>
        <mxCell id="Agi0m2Bdz71Y0sU2h22X-17" value="license_receive_hive" style="shape=step;perimeter=stepPerimeter;whiteSpace=wrap;html=1;fixedSize=1;fillColor=#fff2cc;strokeColor=#d6b656;fontSize=15;" parent="1" vertex="1">
          <mxGeometry x="855" y="1006" width="200" height="50" as="geometry" />
        </mxCell>
        <mxCell id="Agi0m2Bdz71Y0sU2h22X-18" value="license_receive_history" style="shape=step;perimeter=stepPerimeter;whiteSpace=wrap;html=1;fixedSize=1;fillColor=#fff2cc;strokeColor=#d6b656;fontSize=15;" parent="1" vertex="1">
          <mxGeometry x="860" y="905" width="200" height="50" as="geometry" />
        </mxCell>
        <mxCell id="Agi0m2Bdz71Y0sU2h22X-19" value="wfwsignlicense" style="shape=step;perimeter=stepPerimeter;whiteSpace=wrap;html=1;fixedSize=1;fillColor=#fff2cc;strokeColor=#d6b656;fontSize=15;" parent="1" vertex="1">
          <mxGeometry x="1531" y="1152" width="200" height="50" as="geometry" />
        </mxCell>
        <mxCell id="Agi0m2Bdz71Y0sU2h22X-20" value="empoly_hive_name" style="shape=step;perimeter=stepPerimeter;whiteSpace=wrap;html=1;fixedSize=1;fillColor=#fff2cc;strokeColor=#d6b656;fontSize=15;" parent="1" vertex="1">
          <mxGeometry x="850" y="740" width="200" height="50" as="geometry" />
        </mxCell>
        <mxCell id="Agi0m2Bdz71Y0sU2h22X-21" value="empoly_hive" style="shape=step;perimeter=stepPerimeter;whiteSpace=wrap;html=1;fixedSize=1;fillColor=#fff2cc;strokeColor=#d6b656;fontSize=15;" parent="1" vertex="1">
          <mxGeometry x="850" y="670" width="200" height="50" as="geometry" />
        </mxCell>
        <mxCell id="Agi0m2Bdz71Y0sU2h22X-23" value="" style="edgeStyle=orthogonalEdgeStyle;curved=1;rounded=0;orthogonalLoop=1;jettySize=auto;html=1;dashed=1;dashPattern=12 12;fontSize=15;exitX=0.975;exitY=0.5;exitDx=0;exitDy=0;exitPerimeter=0;" parent="1" source="Agi0m2Bdz71Y0sU2h22X-22" target="h7imEG4-RPFQQV8rX1tC-18" edge="1">
          <mxGeometry relative="1" as="geometry" />
        </mxCell>
        <mxCell id="Agi0m2Bdz71Y0sU2h22X-22" value="group_licence_use" style="shape=step;perimeter=stepPerimeter;whiteSpace=wrap;html=1;fixedSize=1;fillColor=#fff2cc;strokeColor=#d6b656;fontSize=15;" parent="1" vertex="1">
          <mxGeometry x="855" y="575" width="200" height="50" as="geometry" />
        </mxCell>
        <mxCell id="2C3xvkMA8jlJhs2-aAn8-1" value="" style="group" parent="1" vertex="1" connectable="0">
          <mxGeometry x="-10" y="1210" width="180" height="40" as="geometry" />
        </mxCell>
        <mxCell id="h7imEG4-RPFQQV8rX1tC-35" value="/user/logstash/bizlog-*" style="verticalLabelPosition=bottom;verticalAlign=top;html=1;shape=mxgraph.basic.layered_rect;dx=10;outlineConnect=0;whiteSpace=wrap;fontSize=14;" parent="2C3xvkMA8jlJhs2-aAn8-1" vertex="1">
          <mxGeometry width="180" height="40" as="geometry" />
        </mxCell>
        <mxCell id="xEwf0O-MvUgcKREUFzJi-13" value="市场主体业务操作日志(新增、注销、变更、撤销等)" style="rounded=0;whiteSpace=wrap;html=1;fillColor=none;strokeColor=none;" parent="2C3xvkMA8jlJhs2-aAn8-1" vertex="1">
          <mxGeometry x="10" width="150" height="30" as="geometry" />
        </mxCell>
        <mxCell id="PYHKH1M4IgRy1iAN6jMI-1" value="市场主体信息：&lt;br&gt;&amp;lt;...&amp;gt; ZWDEEPIN &amp;lt;市场主体信息的json字符串&amp;gt;" style="rounded=0;whiteSpace=wrap;html=1;align=left;verticalAlign=top;fillColor=#dae8fc;strokeColor=#6c8ebf;" parent="1" vertex="1">
          <mxGeometry x="-135" y="1150" width="300" height="43" as="geometry" />
        </mxCell>
        <mxCell id="PYHKH1M4IgRy1iAN6jMI-2" value="执照信息：&lt;br&gt;&amp;lt;...&amp;gt;localdomain &amp;lt;执照信息的json字符串&amp;gt;" style="rounded=0;whiteSpace=wrap;html=1;align=left;verticalAlign=top;fillColor=#dae8fc;strokeColor=#6c8ebf;" parent="1" vertex="1">
          <mxGeometry x="-135" y="890" width="300" height="43" as="geometry" />
        </mxCell>
        <mxCell id="PYHKH1M4IgRy1iAN6jMI-3" value="执照使用信息：&lt;br&gt;&amp;lt;?&amp;gt;#&amp;lt;执照使用时间&amp;gt;#&amp;lt;公司名称&amp;gt;#&amp;lt;业务类型&amp;gt;#&amp;lt;角色&amp;gt;#&amp;lt;地区编码&amp;gt;#&amp;lt;执照SN&amp;gt;#&amp;lt;终端类型&amp;gt;#&amp;lt;?&amp;gt;...&amp;lt;?&amp;gt;#&quot;成功&quot;或&quot;失败&quot;&lt;br&gt;&lt;br&gt;2023-02-22T16:06:16.957Z localhost.localdomain 使用#2023-02-23 00:06:13#山东省大数据局统一用户身份认证系统#扫码登录#法人#370000#37000020230128134748000024462700#105#成功" style="rounded=0;whiteSpace=wrap;html=1;align=left;verticalAlign=top;fillColor=#dae8fc;strokeColor=#6c8ebf;" parent="1" vertex="1">
          <mxGeometry x="-120" y="564.25" width="310" height="155.75" as="geometry" />
        </mxCell>
        <mxCell id="dErfdyEedOs2bl96Plfb-2" value="离线任务" style="rounded=0;whiteSpace=wrap;html=1;fillColor=#fff2cc;strokeColor=#d6b656;" vertex="1" parent="1">
          <mxGeometry x="320" y="567" width="120" height="35" as="geometry" />
        </mxCell>
        <mxCell id="dErfdyEedOs2bl96Plfb-3" value="实时任务" style="rounded=0;whiteSpace=wrap;html=1;fillColor=#f8cecc;strokeColor=#b85450;" vertex="1" parent="1">
          <mxGeometry x="320" y="620" width="120" height="35" as="geometry" />
        </mxCell>
        <mxCell id="dErfdyEedOs2bl96Plfb-4" value="日志信息：&lt;br&gt;&amp;lt;...&amp;gt; &amp;nbsp; realName - &amp;lt;json字符串&amp;gt;&lt;br&gt;2023-02-23T00:11:49.774Z localhost.localdomain 2023-02-23 08:11:49.362 [http-nio-8080-exec-434] INFO&amp;nbsp; realName - {&quot;HASH_ID&quot;:&quot;bNq/dELWX1BAiL9/rCoc4QcdqBt8vtJrX33JY4PInHc=&quot;,&quot;TERMINAL_TYPE&quot;:&quot;105&quot;,&quot;ACTIONED&quot;:1677111109362,&quot;TOKEN&quot;:&quot;WtACWTQUgIQoD-7FtUsIX25rZA0p2QYyH1Lt_fyyAiP-Dy6AFmrd-qu26nrd83_zsFrDt47Po9a5V7ALdcVe3XxX_tZWdPiP-Cu2a68d-3Q=&quot;,&quot;NAME&quot;:&quot;于亚杰&quot;}" style="rounded=0;whiteSpace=wrap;html=1;align=left;verticalAlign=top;fillColor=#dae8fc;strokeColor=#6c8ebf;" vertex="1" parent="1">
          <mxGeometry x="-380" y="1683.5" width="850" height="93" as="geometry" />
        </mxCell>
        <mxCell id="dErfdyEedOs2bl96Plfb-5" value="日志信息：&lt;br&gt;&amp;lt;...&amp;gt; ZWDEEPIN &amp;lt;市场主体信息的json字符串&amp;gt;&lt;br&gt;{&quot;LICENSE_SN&quot;:&quot;46000020230223000958000028165661&quot;,&quot;UPDATED&quot;:1677082198563,&quot;ID_TYPE&quot;:&quot;0&quot;,&quot;AREA_CODE&quot;:&quot;460000&quot;,&lt;br&gt;&quot;DEL_REASON&quot;:&quot;&quot;,&quot;NAME&quot;:&quot;仲苏鹏&quot;,&quot;AUTH_ID&quot;:&quot;LA202302102159319360dEU5xPci&quot;,&quot;ROLE&quot;:&quot;1&quot;,&quot;ENT_NAME&quot;:&quot;儋州幕佳嘉选百货商行（个人独资）&quot;,&quot;CREATED&quot;:1677082198563,&quot;OPENID&quot;:&quot;oiEYl0fBmYkGqbqkwwwa7GCghOtg&quot;,&quot;DOWN_TYPE&quot;:&quot;00&quot;,&lt;br&gt;&quot;HASH_ID&quot;:&quot;uWIrrWz7G3kPC5zcuijX653c28mUC1LDhBqI/7MIWMI=&quot;,&quot;BUSS_TYPE&quot;:&quot;1&quot;,&quot;ORG_CODE&quot;:&quot;91460000MABLK6P783&quot;,&lt;br&gt;&quot;TERNIMAL_TYPE&quot;:&quot;105&quot;,&quot;TOKEN&quot;:&quot;WtACWTQUgIQoD-7FtUsIX7cdDwtNK6lWPdcpGxWihy4TSrwZk2Zru2W_ug8DjiMRcVl5iqYogA1kHAem766x-ya8QFry2G7bFyFKBooud74=&quot;}" style="rounded=0;whiteSpace=wrap;html=1;align=left;verticalAlign=top;fillColor=#dae8fc;strokeColor=#6c8ebf;" vertex="1" parent="1">
          <mxGeometry x="-560" y="1381" width="720" height="130" as="geometry" />
        </mxCell>
        <mxCell id="dErfdyEedOs2bl96Plfb-6" value="投资任职查询" style="rounded=0;whiteSpace=wrap;html=1;align=left;verticalAlign=top;fillColor=#dae8fc;strokeColor=#6c8ebf;" vertex="1" parent="1">
          <mxGeometry y="2050" width="130" height="30" as="geometry" />
        </mxCell>
        <mxCell id="dErfdyEedOs2bl96Plfb-10" style="edgeStyle=orthogonalEdgeStyle;curved=1;rounded=0;orthogonalLoop=1;jettySize=auto;html=1;exitX=1;exitY=0.5;exitDx=0;exitDy=0;entryX=0;entryY=0.5;entryDx=0;entryDy=0;entryPerimeter=0;dashed=1;dashPattern=12 12;" edge="1" parent="1" source="dErfdyEedOs2bl96Plfb-14" target="dErfdyEedOs2bl96Plfb-12">
          <mxGeometry relative="1" as="geometry">
            <mxPoint x="520" y="2403" as="sourcePoint" />
          </mxGeometry>
        </mxCell>
        <mxCell id="dErfdyEedOs2bl96Plfb-12" value="&lt;div style=&quot;border-color: var(--border-color); font-size: 15px;&quot;&gt;MySQL&lt;/div&gt;&lt;div style=&quot;border-color: var(--border-color);&quot;&gt;yyfx.app_info&lt;br&gt;&lt;/div&gt;" style="strokeWidth=2;html=1;shape=mxgraph.flowchart.direct_data;whiteSpace=wrap;fontSize=14;align=center;" vertex="1" parent="1">
          <mxGeometry x="623" y="2373" width="197" height="60" as="geometry" />
        </mxCell>
        <mxCell id="dErfdyEedOs2bl96Plfb-14" value="app_center_mysql" style="shape=step;perimeter=stepPerimeter;whiteSpace=wrap;html=1;fixedSize=1;fillColor=#fff2cc;strokeColor=#d6b656;fontSize=15;" vertex="1" parent="1">
          <mxGeometry x="320" y="2378" width="200" height="50" as="geometry" />
        </mxCell>
        <mxCell id="dErfdyEedOs2bl96Plfb-21" style="edgeStyle=orthogonalEdgeStyle;rounded=0;orthogonalLoop=1;jettySize=auto;html=1;exitX=1;exitY=0.5;exitDx=0;exitDy=0;exitPerimeter=0;entryX=0;entryY=0.5;entryDx=0;entryDy=0;" edge="1" parent="1" source="dErfdyEedOs2bl96Plfb-17" target="dErfdyEedOs2bl96Plfb-14">
          <mxGeometry relative="1" as="geometry">
            <Array as="points">
              <mxPoint x="280" y="2340" />
              <mxPoint x="280" y="2403" />
            </Array>
          </mxGeometry>
        </mxCell>
        <mxCell id="dErfdyEedOs2bl96Plfb-17" value="达梦&lt;br&gt;应用信息&lt;br&gt;licence_auth.app_info" style="strokeWidth=2;html=1;shape=mxgraph.flowchart.direct_data;whiteSpace=wrap;fontSize=14;align=center;" vertex="1" parent="1">
          <mxGeometry x="-15.5" y="2310" width="197.5" height="60" as="geometry" />
        </mxCell>
        <mxCell id="dErfdyEedOs2bl96Plfb-20" value="" style="group" vertex="1" connectable="0" parent="1">
          <mxGeometry x="-48.75" y="2410" width="260" height="190" as="geometry" />
        </mxCell>
        <mxCell id="dErfdyEedOs2bl96Plfb-19" value="前置信息库" style="rounded=0;whiteSpace=wrap;html=1;dashed=1;strokeColor=#FFD966;verticalAlign=top;" vertex="1" parent="dErfdyEedOs2bl96Plfb-20">
          <mxGeometry width="260" height="190" as="geometry" />
        </mxCell>
        <mxCell id="dErfdyEedOs2bl96Plfb-9" value="达梦&lt;br&gt;前置信息（省局）&lt;br&gt;licence_auth.fronted_sys_info" style="strokeWidth=2;html=1;shape=mxgraph.flowchart.direct_data;whiteSpace=wrap;fontSize=14;align=center;" vertex="1" parent="dErfdyEedOs2bl96Plfb-20">
          <mxGeometry x="25" y="38" width="210" height="60" as="geometry" />
        </mxCell>
        <mxCell id="dErfdyEedOs2bl96Plfb-18" value="达梦&lt;br&gt;前置信息（总局）&lt;br&gt;licence_auth.app_system_config" style="strokeWidth=2;html=1;shape=mxgraph.flowchart.direct_data;whiteSpace=wrap;fontSize=14;align=center;" vertex="1" parent="dErfdyEedOs2bl96Plfb-20">
          <mxGeometry x="21.25" y="118" width="217.5" height="60" as="geometry" />
        </mxCell>
        <mxCell id="dErfdyEedOs2bl96Plfb-22" style="edgeStyle=orthogonalEdgeStyle;rounded=0;orthogonalLoop=1;jettySize=auto;html=1;exitX=1;exitY=0.5;exitDx=0;exitDy=0;entryX=0.067;entryY=0.568;entryDx=0;entryDy=0;entryPerimeter=0;" edge="1" parent="1" source="dErfdyEedOs2bl96Plfb-19" target="dErfdyEedOs2bl96Plfb-14">
          <mxGeometry relative="1" as="geometry">
            <mxPoint x="340" y="2470" as="targetPoint" />
            <Array as="points">
              <mxPoint x="280" y="2505" />
              <mxPoint x="280" y="2403" />
              <mxPoint x="333" y="2403" />
            </Array>
          </mxGeometry>
        </mxCell>
        <mxCell id="dErfdyEedOs2bl96Plfb-23" value="市场主体库enterprise每次运行都会用最新的数据进行覆盖，也即每个市场主体只会保留最新状态的一条记录，enterprise_log则保留由全量数据加上历史变更记录&lt;br&gt;licenses需要存储全量且包含历史变更的记录" style="rounded=0;whiteSpace=wrap;html=1;align=left;verticalAlign=top;fillColor=none;strokeColor=none;" vertex="1" parent="1">
          <mxGeometry x="418" y="1253" width="269" height="77" as="geometry" />
        </mxCell>
        <mxCell id="dErfdyEedOs2bl96Plfb-25" value="由enterprise得到总的存续企业总量&lt;br&gt;由enterprise_log得到昨日的业务操作统计数据" style="rounded=0;whiteSpace=wrap;html=1;align=left;verticalAlign=top;fillColor=none;strokeColor=none;" vertex="1" parent="1">
          <mxGeometry x="745" y="1162" width="269" height="48" as="geometry" />
        </mxCell>
        <mxCell id="dErfdyEedOs2bl96Plfb-26" value="实时任务由于不能将日志中的市场主体信息保存到Hive中相应的表中，所以统计截止到现在的存续企业的数量需要结合MySQL中昨日的存续企业数、日志文件中各种状态的企业数进行运算获得" style="rounded=0;whiteSpace=wrap;html=1;align=left;verticalAlign=top;fillColor=none;strokeColor=none;" vertex="1" parent="1">
          <mxGeometry x="910" y="1308" width="269" height="73" as="geometry" />
        </mxCell>
        <mxCell id="dErfdyEedOs2bl96Plfb-27" value="日志文件中缺少市场主体的类型字段，需要查询Hive中市场主体库enterprise来获取，所以需要market_inserthive任务先于本任务运行，否则无法拿到最新的昨日的市场主体信息" style="rounded=0;whiteSpace=wrap;html=1;align=left;verticalAlign=top;fillColor=none;strokeColor=none;" vertex="1" parent="1">
          <mxGeometry x="271" y="994" width="269" height="48" as="geometry" />
        </mxCell>
      </root>
    </mxGraphModel>
  </diagram>
</mxfile>
